M48
; DRILL file {KiCad 7.0.1} date Sun Dec 31 16:00:42 2023
; FORMAT={-:-/ absolute / metric / decimal}
; #@! TF.CreationDate,2023-12-31T16:00:42+01:00
; #@! TF.GenerationSoftware,Kicad,Pcbnew,7.0.1
; #@! TF.FileFunction,Plated,1,2,PTH
FMAT,2
METRIC
; #@! TA.AperFunction,Plated,PTH,ViaDrill
T1C0.800
; #@! TA.AperFunction,Plated,PTH,ComponentDrill
T2C0.800
; #@! TA.AperFunction,Plated,PTH,ComponentDrill
T3C1.000
; #@! TA.AperFunction,Plated,PTH,ComponentDrill
T4C1.500
%
G90
G05
T1
X29.718Y11.42
T2
X9.144Y36.83
X9.144Y29.21
X32.89Y31.74
X32.89Y29.2
X32.89Y26.66
X32.89Y24.12
X32.89Y21.58
X32.89Y19.04
X32.89Y16.5
X32.89Y13.96
X32.89Y11.42
X40.511Y31.74
X40.511Y29.2
X40.511Y26.66
X40.511Y24.12
X40.511Y21.58
X40.511Y19.04
X40.511Y16.5
X40.511Y13.96
X40.511Y11.42
T3
X2.794Y36.83
X2.794Y34.29
X2.794Y31.75
X2.794Y29.21
X2.794Y26.67
X2.794Y24.13
X2.794Y21.59
X2.794Y19.05
X2.794Y16.51
X2.794Y13.97
X2.794Y11.43
X2.794Y8.89
X2.794Y6.35
X2.794Y3.81
T4
X16.764Y29.014
X16.764Y8.524
T0
M30
