<?xml version="1.0" standalone="no"?>
 <!DOCTYPE svg PUBLIC "-//W3C//DTD SVG 1.1//EN" 
 "http://www.w3.org/Graphics/SVG/1.1/DTD/svg11.dtd"> 
<svg
  xmlns:svg="http://www.w3.org/2000/svg"
  xmlns="http://www.w3.org/2000/svg"
  xmlns:xlink="http://www.w3.org/1999/xlink"
  version="1.1"
  width="297.0022mm" height="210.0072mm" viewBox="0.0000 0.0000 297.0022 210.0072">
<title>SVG Image created as ami_rtc-F_Cu.svg date 2023/12/31 17:33:56 </title>
  <desc>Image generated by PCBNEW </desc>
<g style="fill:#000000; fill-opacity:1.0000;stroke:#000000; stroke-opacity:1.0000;
stroke-linecap:round; stroke-linejoin:round;"
 transform="translate(0 0) scale(1 1)">
</g>
<g style="fill:#000000; fill-opacity:0.0; 
stroke:#000000; stroke-width:0.0000; stroke-opacity:1; 
stroke-linecap:round; stroke-linejoin:round;">
<g >
</g>
<g style="fill:#000000; fill-opacity:0.0; 
stroke:#000000; stroke-width:0.0000; stroke-opacity:1; 
stroke-linecap:round; stroke-linejoin:round;">
</g>
<g style="fill:#000000; fill-opacity:1.0000; 
stroke:#000000; stroke-width:0.0000; stroke-opacity:1; 
stroke-linecap:round; stroke-linejoin:round;">
<path style="fill:#000000; fill-opacity:1.0000; 
stroke:#000000; stroke-width:0.0000; stroke-opacity:1; 
stroke-linecap:round; stroke-linejoin:round;fill-rule:evenodd;"
d="M 118.2350,86.3000
118.1393,86.2810
118.0582,86.2268
118.0040,86.1457
117.9850,86.0500
117.9850,85.2500
118.0040,85.1543
118.0582,85.0732
118.1393,85.0190
118.2350,85.0000
119.4850,85.0000
119.5807,85.0190
119.6618,85.0732
119.7160,85.1543
119.7350,85.2500
119.7350,86.0500
119.7160,86.1457
119.6618,86.2268
119.5807,86.2810
119.4850,86.3000
Z" /> 
<path style="fill:#000000; fill-opacity:1.0000; 
stroke:#000000; stroke-width:0.0000; stroke-opacity:1; 
stroke-linecap:round; stroke-linejoin:round;fill-rule:evenodd;"
d="M 118.2350,83.2000
118.1393,83.1810
118.0582,83.1268
118.0040,83.0457
117.9850,82.9500
117.9850,82.1500
118.0040,82.0543
118.0582,81.9732
118.1393,81.9190
118.2350,81.9000
119.4850,81.9000
119.5807,81.9190
119.6618,81.9732
119.7160,82.0543
119.7350,82.1500
119.7350,82.9500
119.7160,83.0457
119.6618,83.1268
119.5807,83.1810
119.4850,83.2000
Z" /> 
</g>
<g >
</g>
<g style="fill:#000000; fill-opacity:1.0000; 
stroke:#000000; stroke-width:0.0000; stroke-opacity:1; 
stroke-linecap:round; stroke-linejoin:round;">
<path style="fill:#000000; fill-opacity:1.0000; 
stroke:#000000; stroke-width:0.0000; stroke-opacity:1; 
stroke-linecap:round; stroke-linejoin:round;fill-rule:evenodd;"
d="M 100.3540,58.8940
103.3540,58.8940
103.3540,61.8940
100.3540,61.8940
Z" /> 
<circle cx="101.8540" cy="80.8840" r="1.5000" /> 
</g>
<g style="fill:#000000; fill-opacity:1.0000; 
stroke:#000000; stroke-width:0.0212; stroke-opacity:1; 
stroke-linecap:round; stroke-linejoin:round;">
</g>
<g >
</g>
<g style="fill:#000000; fill-opacity:1.0000; 
stroke:#000000; stroke-width:0.0212; stroke-opacity:1; 
stroke-linecap:round; stroke-linejoin:round;">
</g>
<g style="fill:#000000; fill-opacity:1.0000; 
stroke:#000000; stroke-width:0.0000; stroke-opacity:1; 
stroke-linecap:round; stroke-linejoin:round;">
<path style="fill:#000000; fill-opacity:1.0000; 
stroke:#000000; stroke-width:0.0000; stroke-opacity:1; 
stroke-linecap:round; stroke-linejoin:round;fill-rule:evenodd;"
d="M 114.9450,86.3000
114.8493,86.2810
114.7682,86.2268
114.7140,86.1457
114.6950,86.0500
114.6950,85.2500
114.7140,85.1543
114.7682,85.0732
114.8493,85.0190
114.9450,85.0000
116.1950,85.0000
116.2907,85.0190
116.3718,85.0732
116.4260,85.1543
116.4450,85.2500
116.4450,86.0500
116.4260,86.1457
116.3718,86.2268
116.2907,86.2810
116.1950,86.3000
Z" /> 
<path style="fill:#000000; fill-opacity:1.0000; 
stroke:#000000; stroke-width:0.0000; stroke-opacity:1; 
stroke-linecap:round; stroke-linejoin:round;fill-rule:evenodd;"
d="M 114.9450,83.2000
114.8493,83.1810
114.7682,83.1268
114.7140,83.0457
114.6950,82.9500
114.6950,82.1500
114.7140,82.0543
114.7682,81.9732
114.8493,81.9190
114.9450,81.9000
116.1950,81.9000
116.2907,81.9190
116.3718,81.9732
116.4260,82.0543
116.4450,82.1500
116.4450,82.9500
116.4260,83.0457
116.3718,83.1268
116.2907,83.1810
116.1950,83.2000
Z" /> 
</g>
<g >
</g>
<g style="fill:#000000; fill-opacity:1.0000; 
stroke:#000000; stroke-width:0.0000; stroke-opacity:1; 
stroke-linecap:round; stroke-linejoin:round;">
<path style="fill:#000000; fill-opacity:1.0000; 
stroke:#000000; stroke-width:0.0000; stroke-opacity:1; 
stroke-linecap:round; stroke-linejoin:round;fill-rule:evenodd;"
d="M 113.4040,51.8770
113.4997,51.8960
113.5808,51.9502
113.6350,52.0313
113.6540,52.1270
113.6540,52.9520
113.6350,53.0477
113.5808,53.1288
113.4997,53.1830
113.4040,53.2020
112.1040,53.2020
112.0083,53.1830
111.9272,53.1288
111.8730,53.0477
111.8540,52.9520
111.8540,52.1270
111.8730,52.0313
111.9272,51.9502
112.0083,51.8960
112.1040,51.8770
Z" /> 
<path style="fill:#000000; fill-opacity:1.0000; 
stroke:#000000; stroke-width:0.0000; stroke-opacity:1; 
stroke-linecap:round; stroke-linejoin:round;fill-rule:evenodd;"
d="M 113.4040,55.0020
113.4997,55.0210
113.5808,55.0752
113.6350,55.1563
113.6540,55.2520
113.6540,56.0770
113.6350,56.1727
113.5808,56.2538
113.4997,56.3080
113.4040,56.3270
112.1040,56.3270
112.0083,56.3080
111.9272,56.2538
111.8730,56.1727
111.8540,56.0770
111.8540,55.2520
111.8730,55.1563
111.9272,55.0752
112.0083,55.0210
112.1040,55.0020
Z" /> 
</g>
<g >
</g>
<g style="fill:#000000; fill-opacity:1.0000; 
stroke:#000000; stroke-width:0.0000; stroke-opacity:1; 
stroke-linecap:round; stroke-linejoin:round;">
<path style="fill:#000000; fill-opacity:1.0000; 
stroke:#000000; stroke-width:0.0000; stroke-opacity:1; 
stroke-linecap:round; stroke-linejoin:round;fill-rule:evenodd;"
d="M 109.5160,51.2560
109.6117,51.2750
109.6928,51.3292
109.7470,51.4103
109.7660,51.5060
109.7660,53.6060
109.7470,53.7017
109.6928,53.7828
109.6117,53.8370
109.5160,53.8560
108.4160,53.8560
108.3203,53.8370
108.2392,53.7828
108.1850,53.7017
108.1660,53.6060
108.1660,51.5060
108.1850,51.4103
108.2392,51.3292
108.3203,51.2750
108.4160,51.2560
Z" /> 
<path style="fill:#000000; fill-opacity:1.0000; 
stroke:#000000; stroke-width:0.0000; stroke-opacity:1; 
stroke-linecap:round; stroke-linejoin:round;fill-rule:evenodd;"
d="M 109.5160,54.8560
109.6117,54.8750
109.6928,54.9292
109.7470,55.0103
109.7660,55.1060
109.7660,57.2060
109.7470,57.3017
109.6928,57.3828
109.6117,57.4370
109.5160,57.4560
108.4160,57.4560
108.3203,57.4370
108.2392,57.3828
108.1850,57.3017
108.1660,57.2060
108.1660,55.1060
108.1850,55.0103
108.2392,54.9292
108.3203,54.8750
108.4160,54.8560
Z" /> 
</g>
<g >
</g>
<g style="fill:#000000; fill-opacity:1.0000; 
stroke:#000000; stroke-width:0.0000; stroke-opacity:1; 
stroke-linecap:round; stroke-linejoin:round;">
<path style="fill:#000000; fill-opacity:1.0000; 
stroke:#000000; stroke-width:0.0000; stroke-opacity:1; 
stroke-linecap:round; stroke-linejoin:round;fill-rule:evenodd;"
d="M 87.0340,53.4280
87.0340,51.7280
88.7340,51.7280
88.7340,53.4280
Z" /> 
<circle cx="87.8840" cy="55.1180" r="0.8500" /> 
<circle cx="87.8840" cy="57.6580" r="0.8500" /> 
<circle cx="87.8840" cy="60.1980" r="0.8500" /> 
<circle cx="87.8840" cy="62.7380" r="0.8500" /> 
<circle cx="87.8840" cy="65.2780" r="0.8500" /> 
<circle cx="87.8840" cy="67.8180" r="0.8500" /> 
<circle cx="87.8840" cy="70.3580" r="0.8500" /> 
<circle cx="87.8840" cy="72.8980" r="0.8500" /> 
<circle cx="87.8840" cy="75.4380" r="0.8500" /> 
<circle cx="87.8840" cy="77.9780" r="0.8500" /> 
<circle cx="87.8840" cy="80.5180" r="0.8500" /> 
<circle cx="87.8840" cy="83.0580" r="0.8500" /> 
<circle cx="87.8840" cy="85.5980" r="0.8500" /> 
</g>
<g >
</g>
<g style="fill:#000000; fill-opacity:1.0000; 
stroke:#000000; stroke-width:0.0000; stroke-opacity:1; 
stroke-linecap:round; stroke-linejoin:round;">
<path style="fill:#000000; fill-opacity:1.0000; 
stroke:#000000; stroke-width:0.0000; stroke-opacity:1; 
stroke-linecap:round; stroke-linejoin:round;fill-rule:evenodd;"
d="M 116.7805,58.4680
116.7805,56.8680
119.1805,56.8680
119.1805,58.4680
Z" /> 
</g>
<g style="fill:#000000; fill-opacity:1.0000; 
stroke:#000000; stroke-width:1.6000; stroke-opacity:1; 
stroke-linecap:round; stroke-linejoin:round;">
</g>
<g style="fill:#000000; fill-opacity:0.0; 
stroke:#000000; stroke-width:1.6000; stroke-opacity:1; 
stroke-linecap:round; stroke-linejoin:round;">
<path d="M117.5805 60.2080
L118.3805 60.2080
" />
<path d="M117.5805 62.7480
L118.3805 62.7480
" />
<path d="M117.5805 65.2880
L118.3805 65.2880
" />
<path d="M117.5805 67.8280
L118.3805 67.8280
" />
<path d="M117.5805 70.3680
L118.3805 70.3680
" />
<path d="M117.5805 72.9080
L118.3805 72.9080
" />
<path d="M117.5805 75.4480
L118.3805 75.4480
" />
<path d="M117.5805 77.9880
L118.3805 77.9880
" />
<path d="M125.2005 77.9880
L126.0005 77.9880
" />
<path d="M125.2005 75.4480
L126.0005 75.4480
" />
<path d="M125.2005 72.9080
L126.0005 72.9080
" />
<path d="M125.2005 70.3680
L126.0005 70.3680
" />
<path d="M125.2005 67.8280
L126.0005 67.8280
" />
<path d="M125.2005 65.2880
L126.0005 65.2880
" />
<path d="M125.2005 62.7480
L126.0005 62.7480
" />
<path d="M125.2005 60.2080
L126.0005 60.2080
" />
<path d="M125.2005 57.6680
L126.0005 57.6680
" />
</g>
<g >
</g>
<g style="fill:#000000; fill-opacity:0.0; 
stroke:#000000; stroke-width:1.6000; stroke-opacity:1; 
stroke-linecap:round; stroke-linejoin:round;">
</g>
<g style="fill:#000000; fill-opacity:0.0; 
stroke:#000000; stroke-width:0.0000; stroke-opacity:1; 
stroke-linecap:round; stroke-linejoin:round;">
</g>
<g style="fill:#000000; fill-opacity:1.0000; 
stroke:#000000; stroke-width:0.0000; stroke-opacity:1; 
stroke-linecap:round; stroke-linejoin:round;">
<path style="fill:#000000; fill-opacity:1.0000; 
stroke:#000000; stroke-width:0.0000; stroke-opacity:1; 
stroke-linecap:round; stroke-linejoin:round;fill-rule:evenodd;"
d="M 93.4340,51.7780
95.0340,51.7780
95.0340,53.3780
93.4340,53.3780
Z" /> 
<circle cx="94.2340" cy="60.1980" r="0.8000" /> 
</g>
<g >
</g>
<g style="fill:#000000; fill-opacity:1.0000; 
stroke:#000000; stroke-width:0.0000; stroke-opacity:1; 
stroke-linecap:round; stroke-linejoin:round;">
<circle cx="114.8080" cy="77.9880" r="0.7000" /> 
</g>
<g style="fill:#000000; fill-opacity:1.0000; 
stroke:#000000; stroke-width:0.0212; stroke-opacity:1; 
stroke-linecap:round; stroke-linejoin:round;">
</g>
<g >
</g>
<g style="fill:#000000; fill-opacity:1.0000; 
stroke:#000000; stroke-width:0.0212; stroke-opacity:1; 
stroke-linecap:round; stroke-linejoin:round;">
</g>
<g style="fill:#000000; fill-opacity:1.0000; 
stroke:#000000; stroke-width:0.4000; stroke-opacity:1; 
stroke-linecap:round; stroke-linejoin:round;">
</g>
<g style="fill:#000000; fill-opacity:0.0; 
stroke:#000000; stroke-width:0.4000; stroke-opacity:1; 
stroke-linecap:round; stroke-linejoin:round;">
<path d="M112.2625 56.1560
L112.7540 55.6645
" />
<path d="M108.9660 56.1560
L112.2625 56.1560
" />
<path d="M112.7540 55.6645
L112.7540 75.9340
" />
<path d="M112.7540 75.9340
L114.8080 77.9880
" />
<path d="M111.5445 52.5395
L111.5280 52.5560
" />
<path d="M111.5445 52.5395
L108.9825 52.5395
" />
<path d="M123.4320 85.6500
L127.2005 81.8815
" />
<path d="M125.6005 57.5285
L125.6005 57.6680
" />
<path d="M108.9825 52.5395
L108.9660 52.5560
" />
<path d="M117.5635 52.5395
L117.6020 52.5780
" />
<path d="M117.5635 52.5395
L120.6115 52.5395
" />
<path d="M115.3160 52.5395
L117.5635 52.5395
" />
<path d="M120.6115 52.5395
L125.6005 57.5285
" />
<path d="M127.2005 81.8815
L127.2005 59.2680
" />
<path d="M127.2005 59.2680
L125.6005 57.6680
" />
<path d="M118.8600 85.6500
L115.5700 85.6500
" />
<path d="M118.8600 85.6500
L123.4320 85.6500
" />
<path d="M115.3160 52.5395
L111.5445 52.5395
" />
<path d="M115.5700 82.5500
L115.3360 82.7840
" />
<path d="M90.1500 82.7840
L87.8840 80.5180
" />
<path d="M115.5700 82.5500
L115.0820 83.0380
" />
<path d="M116.3805 81.7395
L115.5700 82.5500
" />
<path d="M115.3360 82.7840
L90.1500 82.7840
" />
<path d="M117.9805 60.2080
L116.3805 61.8080
" />
<path d="M116.3805 61.8080
L116.3805 81.7395
" />
<path d="M115.5700 82.5500
L115.3654 82.5500
" />
<path d="M117.9805 62.7480
L123.0605 62.7480
" />
<path d="M118.8600 82.5500
L120.1420 82.5500
" />
<path d="M121.9200 68.9685
L125.6005 65.2880
" />
<path d="M123.0605 62.7480
L125.6005 65.2880
" />
<path d="M121.9200 80.7720
L121.9200 68.9685
" />
<path d="M120.1420 82.5500
L121.9200 80.7720
" />
</g>
<g >
</g>
</g> 
</svg>
