<?xml version="1.0" standalone="no"?>
 <!DOCTYPE svg PUBLIC "-//W3C//DTD SVG 1.1//EN" 
 "http://www.w3.org/Graphics/SVG/1.1/DTD/svg11.dtd"> 
<svg
  xmlns:svg="http://www.w3.org/2000/svg"
  xmlns="http://www.w3.org/2000/svg"
  xmlns:xlink="http://www.w3.org/1999/xlink"
  version="1.1"
  width="297.0022mm" height="210.0072mm" viewBox="0.0000 0.0000 297.0022 210.0072">
<title>SVG Image created as ami_rtc-NPTH-drl_map.svg date 2023/12/31 18:08:18 </title>
  <desc>Image generated by PCBNEW </desc>
<g style="fill:#000000; fill-opacity:1.0000;stroke:#000000; stroke-opacity:1.0000;
stroke-linecap:round; stroke-linejoin:round;"
 transform="translate(0 0) scale(1 1)">
</g>
<g style="fill:#000000; fill-opacity:0.0; 
stroke:#000000; stroke-width:0.0000; stroke-opacity:1; 
stroke-linecap:round; stroke-linejoin:round;">
</g>
<g style="fill:#000000; fill-opacity:0.0; 
stroke:#000000; stroke-width:0.2902; stroke-opacity:1; 
stroke-linecap:round; stroke-linejoin:round;">
<path d="M86.2218 120.8592
L210.7804 120.8592
" />
<path d="M210.7804 120.8592
L210.7804 5.1451
" />
<path d="M210.7804 5.1451
L86.2218 5.1451
" />
<path d="M86.2218 5.1451
L86.2218 120.8592
" />
</g>
<g style="fill:#000000; fill-opacity:0.0; 
stroke:#000000; stroke-width:0.5803; stroke-opacity:1; 
stroke-linecap:round; stroke-linejoin:round;">
</g>
<g style="fill:#000000; fill-opacity:0.0; 
stroke:#000000; stroke-width:0.2000; stroke-opacity:1; 
stroke-linecap:round; stroke-linejoin:round;">
<text x="88.0767" y="124.2043"
textLength="14.7667" font-size="2.6667" lengthAdjust="spacingAndGlyphs"
text-anchor="start" opacity="0">Drill Map:</text>
<g class="stroked-text"><desc>Drill Map:</desc>
<path d="M88.5529 124.1296
L88.5529 122.1296
" />
<path d="M88.5529 122.1296
L89.0291 122.1296
" />
<path d="M89.0291 122.1296
L89.3148 122.2248
" />
<path d="M89.3148 122.2248
L89.5053 122.4153
" />
<path d="M89.5053 122.4153
L89.6005 122.6057
" />
<path d="M89.6005 122.6057
L89.6958 122.9867
" />
<path d="M89.6958 122.9867
L89.6958 123.2724
" />
<path d="M89.6958 123.2724
L89.6005 123.6534
" />
<path d="M89.6005 123.6534
L89.5053 123.8438
" />
<path d="M89.5053 123.8438
L89.3148 124.0343
" />
<path d="M89.3148 124.0343
L89.0291 124.1296
" />
<path d="M89.0291 124.1296
L88.5529 124.1296
" />
<path d="M90.5529 124.1296
L90.5529 122.7962
" />
<path d="M90.5529 123.1772
L90.6482 122.9867
" />
<path d="M90.6482 122.9867
L90.7434 122.8915
" />
<path d="M90.7434 122.8915
L90.9339 122.7962
" />
<path d="M90.9339 122.7962
L91.1244 122.7962
" />
<path d="M91.7910 124.1296
L91.7910 122.7962
" />
<path d="M91.7910 122.1296
L91.6958 122.2248
" />
<path d="M91.6958 122.2248
L91.7910 122.3200
" />
<path d="M91.7910 122.3200
L91.8863 122.2248
" />
<path d="M91.8863 122.2248
L91.7910 122.1296
" />
<path d="M91.7910 122.1296
L91.7910 122.3200
" />
<path d="M93.0291 124.1296
L92.8386 124.0343
" />
<path d="M92.8386 124.0343
L92.7434 123.8438
" />
<path d="M92.7434 123.8438
L92.7434 122.1296
" />
<path d="M94.0767 124.1296
L93.8863 124.0343
" />
<path d="M93.8863 124.0343
L93.7910 123.8438
" />
<path d="M93.7910 123.8438
L93.7910 122.1296
" />
<path d="M96.3625 124.1296
L96.3625 122.1296
" />
<path d="M96.3625 122.1296
L97.0291 123.5581
" />
<path d="M97.0291 123.5581
L97.6958 122.1296
" />
<path d="M97.6958 122.1296
L97.6958 124.1296
" />
<path d="M99.5053 124.1296
L99.5053 123.0819
" />
<path d="M99.5053 123.0819
L99.4101 122.8915
" />
<path d="M99.4101 122.8915
L99.2196 122.7962
" />
<path d="M99.2196 122.7962
L98.8386 122.7962
" />
<path d="M98.8386 122.7962
L98.6482 122.8915
" />
<path d="M99.5053 124.0343
L99.3148 124.1296
" />
<path d="M99.3148 124.1296
L98.8386 124.1296
" />
<path d="M98.8386 124.1296
L98.6482 124.0343
" />
<path d="M98.6482 124.0343
L98.5529 123.8438
" />
<path d="M98.5529 123.8438
L98.5529 123.6534
" />
<path d="M98.5529 123.6534
L98.6482 123.4629
" />
<path d="M98.6482 123.4629
L98.8386 123.3677
" />
<path d="M98.8386 123.3677
L99.3148 123.3677
" />
<path d="M99.3148 123.3677
L99.5053 123.2724
" />
<path d="M100.4577 122.7962
L100.4577 124.7962
" />
<path d="M100.4577 122.8915
L100.6482 122.7962
" />
<path d="M100.6482 122.7962
L101.0291 122.7962
" />
<path d="M101.0291 122.7962
L101.2196 122.8915
" />
<path d="M101.2196 122.8915
L101.3148 122.9867
" />
<path d="M101.3148 122.9867
L101.4101 123.1772
" />
<path d="M101.4101 123.1772
L101.4101 123.7486
" />
<path d="M101.4101 123.7486
L101.3148 123.9391
" />
<path d="M101.3148 123.9391
L101.2196 124.0343
" />
<path d="M101.2196 124.0343
L101.0291 124.1296
" />
<path d="M101.0291 124.1296
L100.6482 124.1296
" />
<path d="M100.6482 124.1296
L100.4577 124.0343
" />
<path d="M102.2672 123.9391
L102.3625 124.0343
" />
<path d="M102.3625 124.0343
L102.2672 124.1296
" />
<path d="M102.2672 124.1296
L102.1720 124.0343
" />
<path d="M102.1720 124.0343
L102.2672 123.9391
" />
<path d="M102.2672 123.9391
L102.2672 124.1296
" />
<path d="M102.2672 122.8915
L102.3625 122.9867
" />
<path d="M102.3625 122.9867
L102.2672 123.0819
" />
<path d="M102.2672 123.0819
L102.1720 122.9867
" />
<path d="M102.1720 122.9867
L102.2672 122.8915
" />
<path d="M102.2672 122.8915
L102.2672 123.0819
" />
</g></g> 
</svg>
