<?xml version="1.0" standalone="no"?>
 <!DOCTYPE svg PUBLIC "-//W3C//DTD SVG 1.1//EN" 
 "http://www.w3.org/Graphics/SVG/1.1/DTD/svg11.dtd"> 
<svg
  xmlns:svg="http://www.w3.org/2000/svg"
  xmlns="http://www.w3.org/2000/svg"
  xmlns:xlink="http://www.w3.org/1999/xlink"
  version="1.1"
  width="297.0022mm" height="210.0072mm" viewBox="0.0000 0.0000 297.0022 210.0072">
<title>SVG Image created as ami_rtc-B_Cu.svg date 2023/12/31 17:33:56 </title>
  <desc>Image generated by PCBNEW </desc>
<g style="fill:#000000; fill-opacity:1.0000;stroke:#000000; stroke-opacity:1.0000;
stroke-linecap:round; stroke-linejoin:round;"
 transform="translate(0 0) scale(1 1)">
</g>
<g style="fill:#000000; fill-opacity:0.0; 
stroke:#000000; stroke-width:0.0000; stroke-opacity:1; 
stroke-linecap:round; stroke-linejoin:round;">
<g >
</g>
<g >
</g>
<g style="fill:#000000; fill-opacity:0.0; 
stroke:#000000; stroke-width:0.0000; stroke-opacity:1; 
stroke-linecap:round; stroke-linejoin:round;">
</g>
<g style="fill:#000000; fill-opacity:0.0; 
stroke:#000000; stroke-width:0.0000; stroke-opacity:1; 
stroke-linecap:round; stroke-linejoin:round;">
</g>
<g style="fill:#000000; fill-opacity:1.0000; 
stroke:#000000; stroke-width:0.0000; stroke-opacity:1; 
stroke-linecap:round; stroke-linejoin:round;">
<path style="fill:#000000; fill-opacity:1.0000; 
stroke:#000000; stroke-width:0.0000; stroke-opacity:1; 
stroke-linecap:round; stroke-linejoin:round;fill-rule:evenodd;"
d="M 100.3540,58.8940
103.3540,58.8940
103.3540,61.8940
100.3540,61.8940
Z" /> 
<circle cx="101.8540" cy="80.8840" r="1.5000" /> 
</g>
<g style="fill:#000000; fill-opacity:1.0000; 
stroke:#000000; stroke-width:0.0212; stroke-opacity:1; 
stroke-linecap:round; stroke-linejoin:round;">
</g>
<g >
</g>
<g >
</g>
<g >
</g>
<g >
</g>
<g style="fill:#000000; fill-opacity:1.0000; 
stroke:#000000; stroke-width:0.0212; stroke-opacity:1; 
stroke-linecap:round; stroke-linejoin:round;">
</g>
<g style="fill:#000000; fill-opacity:1.0000; 
stroke:#000000; stroke-width:0.0000; stroke-opacity:1; 
stroke-linecap:round; stroke-linejoin:round;">
<path style="fill:#000000; fill-opacity:1.0000; 
stroke:#000000; stroke-width:0.0000; stroke-opacity:1; 
stroke-linecap:round; stroke-linejoin:round;fill-rule:evenodd;"
d="M 87.0340,53.4280
87.0340,51.7280
88.7340,51.7280
88.7340,53.4280
Z" /> 
<circle cx="87.8840" cy="55.1180" r="0.8500" /> 
<circle cx="87.8840" cy="57.6580" r="0.8500" /> 
<circle cx="87.8840" cy="60.1980" r="0.8500" /> 
<circle cx="87.8840" cy="62.7380" r="0.8500" /> 
<circle cx="87.8840" cy="65.2780" r="0.8500" /> 
<circle cx="87.8840" cy="67.8180" r="0.8500" /> 
<circle cx="87.8840" cy="70.3580" r="0.8500" /> 
<circle cx="87.8840" cy="72.8980" r="0.8500" /> 
<circle cx="87.8840" cy="75.4380" r="0.8500" /> 
<circle cx="87.8840" cy="77.9780" r="0.8500" /> 
<circle cx="87.8840" cy="80.5180" r="0.8500" /> 
<circle cx="87.8840" cy="83.0580" r="0.8500" /> 
<circle cx="87.8840" cy="85.5980" r="0.8500" /> 
</g>
<g >
</g>
<g style="fill:#000000; fill-opacity:1.0000; 
stroke:#000000; stroke-width:0.0000; stroke-opacity:1; 
stroke-linecap:round; stroke-linejoin:round;">
<path style="fill:#000000; fill-opacity:1.0000; 
stroke:#000000; stroke-width:0.0000; stroke-opacity:1; 
stroke-linecap:round; stroke-linejoin:round;fill-rule:evenodd;"
d="M 116.7805,58.4680
116.7805,56.8680
119.1805,56.8680
119.1805,58.4680
Z" /> 
</g>
<g style="fill:#000000; fill-opacity:1.0000; 
stroke:#000000; stroke-width:1.6000; stroke-opacity:1; 
stroke-linecap:round; stroke-linejoin:round;">
</g>
<g style="fill:#000000; fill-opacity:0.0; 
stroke:#000000; stroke-width:1.6000; stroke-opacity:1; 
stroke-linecap:round; stroke-linejoin:round;">
<path d="M117.5805 60.2080
L118.3805 60.2080
" />
<path d="M117.5805 62.7480
L118.3805 62.7480
" />
<path d="M117.5805 65.2880
L118.3805 65.2880
" />
<path d="M117.5805 67.8280
L118.3805 67.8280
" />
<path d="M117.5805 70.3680
L118.3805 70.3680
" />
<path d="M117.5805 72.9080
L118.3805 72.9080
" />
<path d="M117.5805 75.4480
L118.3805 75.4480
" />
<path d="M117.5805 77.9880
L118.3805 77.9880
" />
<path d="M125.2005 77.9880
L126.0005 77.9880
" />
<path d="M125.2005 75.4480
L126.0005 75.4480
" />
<path d="M125.2005 72.9080
L126.0005 72.9080
" />
<path d="M125.2005 70.3680
L126.0005 70.3680
" />
<path d="M125.2005 67.8280
L126.0005 67.8280
" />
<path d="M125.2005 65.2880
L126.0005 65.2880
" />
<path d="M125.2005 62.7480
L126.0005 62.7480
" />
<path d="M125.2005 60.2080
L126.0005 60.2080
" />
<path d="M125.2005 57.6680
L126.0005 57.6680
" />
</g>
<g >
</g>
<g style="fill:#000000; fill-opacity:0.0; 
stroke:#000000; stroke-width:1.6000; stroke-opacity:1; 
stroke-linecap:round; stroke-linejoin:round;">
</g>
<g style="fill:#000000; fill-opacity:0.0; 
stroke:#000000; stroke-width:0.0000; stroke-opacity:1; 
stroke-linecap:round; stroke-linejoin:round;">
</g>
<g style="fill:#000000; fill-opacity:1.0000; 
stroke:#000000; stroke-width:0.0000; stroke-opacity:1; 
stroke-linecap:round; stroke-linejoin:round;">
<path style="fill:#000000; fill-opacity:1.0000; 
stroke:#000000; stroke-width:0.0000; stroke-opacity:1; 
stroke-linecap:round; stroke-linejoin:round;fill-rule:evenodd;"
d="M 93.4340,51.7780
95.0340,51.7780
95.0340,53.3780
93.4340,53.3780
Z" /> 
<circle cx="94.2340" cy="60.1980" r="0.8000" /> 
</g>
<g >
</g>
<g style="fill:#000000; fill-opacity:1.0000; 
stroke:#000000; stroke-width:0.0000; stroke-opacity:1; 
stroke-linecap:round; stroke-linejoin:round;">
<circle cx="114.8080" cy="77.9880" r="0.7000" /> 
</g>
<g style="fill:#000000; fill-opacity:1.0000; 
stroke:#000000; stroke-width:0.0212; stroke-opacity:1; 
stroke-linecap:round; stroke-linejoin:round;">
</g>
<g >
</g>
<g style="fill:#000000; fill-opacity:1.0000; 
stroke:#000000; stroke-width:0.0212; stroke-opacity:1; 
stroke-linecap:round; stroke-linejoin:round;">
</g>
<g style="fill:#000000; fill-opacity:1.0000; 
stroke:#000000; stroke-width:0.4000; stroke-opacity:1; 
stroke-linecap:round; stroke-linejoin:round;">
</g>
<g style="fill:#000000; fill-opacity:0.0; 
stroke:#000000; stroke-width:0.4000; stroke-opacity:1; 
stroke-linecap:round; stroke-linejoin:round;">
<path d="M101.6580 60.1980
L101.8540 60.3940
" />
<path d="M94.2340 60.1980
L101.6580 60.1980
" />
<path d="M92.5980 80.8840
L87.8840 85.5980
" />
<path d="M101.8540 80.8840
L92.5980 80.8840
" />
<path d="M117.9805 77.9880
L114.8080 77.9880
" />
<path d="M104.7500 77.9880
L101.8540 80.8840
" />
<path d="M114.8080 77.9880
L104.7500 77.9880
" />
<path d="M117.6020 52.5780
L95.2500 52.5780
" />
<path d="M87.8840 52.5780
L95.2500 52.5780
" />
<path d="M120.5105 52.5780
L117.6020 52.5780
" />
<path d="M125.6005 57.6680
L120.5105 52.5780
" />
<path d="M125.6005 67.8280
L124.0005 66.2280
" />
<path d="M124.0005 66.2280
L124.0005 61.1230
" />
<path d="M124.0005 61.1230
L117.9955 55.1180
" />
<path d="M117.9955 55.1180
L87.8840 55.1180
" />
<path d="M110.3755 58.9280
L109.1055 57.6580
" />
<path d="M120.7805 65.5480
L120.7805 60.9109
" />
<path d="M125.6005 70.3680
L120.7805 65.5480
" />
<path d="M120.7805 60.9109
L118.7976 58.9280
" />
<path d="M118.7976 58.9280
L110.3755 58.9280
" />
<path d="M109.1055 57.6580
L87.8840 57.6580
" />
<path d="M118.7376 61.4080
L110.3155 61.4080
" />
<path d="M120.1805 67.4880
L120.1805 62.8509
" />
<path d="M109.4295 62.2940
L89.9800 62.2940
" />
<path d="M89.9800 62.2940
L87.8840 60.1980
" />
<path d="M110.3155 61.4080
L109.4295 62.2940
" />
<path d="M120.1805 62.8509
L118.7376 61.4080
" />
<path d="M125.6005 72.9080
L120.1805 67.4880
" />
<path d="M119.5805 69.4280
L119.5805 64.7909
" />
<path d="M119.5805 64.7909
L118.7976 64.0080
" />
<path d="M125.6005 75.4480
L119.5805 69.4280
" />
<path d="M89.1540 64.0080
L87.8840 62.7380
" />
<path d="M118.7976 64.0080
L89.1540 64.0080
" />
<path d="M87.8940 65.2880
L87.8840 65.2780
" />
<path d="M109.1055 65.2780
L87.8840 65.2780
" />
<path d="M109.1155 65.2880
L109.1055 65.2780
" />
<path d="M117.9805 65.2880
L109.1155 65.2880
" />
<path d="M87.8940 67.8280
L87.8840 67.8180
" />
<path d="M117.9805 67.8280
L109.1155 67.8280
" />
<path d="M109.1055 67.8180
L87.8840 67.8180
" />
<path d="M109.1155 67.8280
L109.1055 67.8180
" />
<path d="M87.8940 70.3680
L87.8840 70.3580
" />
<path d="M109.1055 70.3580
L87.8840 70.3580
" />
<path d="M109.1155 70.3680
L109.1055 70.3580
" />
<path d="M117.9805 70.3680
L109.1155 70.3680
" />
<path d="M87.8940 72.9080
L87.8840 72.8980
" />
<path d="M117.9805 72.9080
L109.1155 72.9080
" />
<path d="M109.1055 72.8980
L87.8840 72.8980
" />
<path d="M109.1155 72.9080
L109.1055 72.8980
" />
<path d="M117.9805 75.4480
L109.1155 75.4480
" />
<path d="M109.1155 75.4480
L109.1055 75.4380
" />
<path d="M87.8940 75.4480
L87.8840 75.4380
" />
<path d="M109.1055 75.4380
L87.8840 75.4380
" />
<path d="M89.0740 76.7880
L87.8840 77.9780
" />
<path d="M124.4005 76.7880
L89.0740 76.7880
" />
<path d="M125.6005 77.9880
L124.4005 76.7880
" />
</g>
<g >
</g>
</g> 
</svg>
