<?xml version="1.0" standalone="no"?>
 <!DOCTYPE svg PUBLIC "-//W3C//DTD SVG 1.1//EN" 
 "http://www.w3.org/Graphics/SVG/1.1/DTD/svg11.dtd"> 
<svg
  xmlns:svg="http://www.w3.org/2000/svg"
  xmlns="http://www.w3.org/2000/svg"
  xmlns:xlink="http://www.w3.org/1999/xlink"
  version="1.1"
  width="297.0022mm" height="210.0072mm" viewBox="0.0000 0.0000 297.0022 210.0072">
<title>SVG Image created as ami_rtc-PTH-drl_map.svg date 2023/12/31 18:08:18 </title>
  <desc>Image generated by PCBNEW </desc>
<g style="fill:#000000; fill-opacity:1.0000;stroke:#000000; stroke-opacity:1.0000;
stroke-linecap:round; stroke-linejoin:round;"
 transform="translate(0 0) scale(1 1)">
</g>
<g style="fill:#000000; fill-opacity:0.0; 
stroke:#000000; stroke-width:0.0000; stroke-opacity:1; 
stroke-linecap:round; stroke-linejoin:round;">
</g>
<g style="fill:#000000; fill-opacity:0.0; 
stroke:#000000; stroke-width:0.2902; stroke-opacity:1; 
stroke-linecap:round; stroke-linejoin:round;">
<path d="M86.2218 120.8592
L210.7804 120.8592
" />
<path d="M210.7804 120.8592
L210.7804 5.1451
" />
<path d="M210.7804 5.1451
L86.2218 5.1451
" />
<path d="M86.2218 5.1451
L86.2218 120.8592
" />
</g>
<g style="fill:#000000; fill-opacity:0.0; 
stroke:#000000; stroke-width:0.5803; stroke-opacity:1; 
stroke-linecap:round; stroke-linejoin:round;">
</g>
<g style="fill:#000000; fill-opacity:0.0; 
stroke:#000000; stroke-width:0.2321; stroke-opacity:1; 
stroke-linecap:round; stroke-linejoin:round;">
<path d="M171.2940 86.5611
L173.6153 88.8825
" />
<path d="M173.6153 86.5611
L171.2940 88.8825
" />
<circle cx="112.7550" cy="13.9895" r="1.1607" /> 
<circle cx="112.7550" cy="36.1005" r="1.1607" /> 
<circle cx="181.6603" cy="28.7592" r="1.1607" /> 
<circle cx="181.6603" cy="36.1295" r="1.1607" /> 
<circle cx="181.6603" cy="43.4998" r="1.1607" /> 
<circle cx="181.6603" cy="50.8701" r="1.1607" /> 
<circle cx="181.6603" cy="58.2405" r="1.1607" /> 
<circle cx="181.6603" cy="65.6108" r="1.1607" /> 
<circle cx="181.6603" cy="72.9811" r="1.1607" /> 
<circle cx="181.6603" cy="80.3514" r="1.1607" /> 
<circle cx="181.6603" cy="87.7218" r="1.1607" /> 
<circle cx="203.7713" cy="28.7592" r="1.1607" /> 
<circle cx="203.7713" cy="36.1295" r="1.1607" /> 
<circle cx="203.7713" cy="43.4998" r="1.1607" /> 
<circle cx="203.7713" cy="50.8701" r="1.1607" /> 
<circle cx="203.7713" cy="58.2405" r="1.1607" /> 
<circle cx="203.7713" cy="65.6108" r="1.1607" /> 
<circle cx="203.7713" cy="72.9811" r="1.1607" /> 
<circle cx="203.7713" cy="80.3514" r="1.1607" /> 
<circle cx="203.7713" cy="87.7218" r="1.1607" /> 
</g>
<g style="fill:#000000; fill-opacity:0.0; 
stroke:#000000; stroke-width:0.2902; stroke-opacity:1; 
stroke-linecap:round; stroke-linejoin:round;">
<path d="M94.3292 12.5386
L94.3292 15.4403
" />
<path d="M92.8783 13.9895
L95.7800 13.9895
" />
<path d="M94.3292 19.9090
L94.3292 22.8107
" />
<path d="M92.8783 21.3598
L95.7800 21.3598
" />
<path d="M94.3292 27.2793
L94.3292 30.1810
" />
<path d="M92.8783 28.7301
L95.7800 28.7301
" />
<path d="M94.3292 34.6496
L94.3292 37.5513
" />
<path d="M92.8783 36.1005
L95.7800 36.1005
" />
<path d="M94.3292 42.0199
L94.3292 44.9216
" />
<path d="M92.8783 43.4708
L95.7800 43.4708
" />
<path d="M94.3292 49.3903
L94.3292 52.2920
" />
<path d="M92.8783 50.8411
L95.7800 50.8411
" />
<path d="M94.3292 56.7606
L94.3292 59.6623
" />
<path d="M92.8783 58.2114
L95.7800 58.2114
" />
<path d="M94.3292 64.1309
L94.3292 67.0326
" />
<path d="M92.8783 65.5818
L95.7800 65.5818
" />
<path d="M94.3292 71.5012
L94.3292 74.4030
" />
<path d="M92.8783 72.9521
L95.7800 72.9521
" />
<path d="M94.3292 78.8716
L94.3292 81.7733
" />
<path d="M92.8783 80.3224
L95.7800 80.3224
" />
<path d="M94.3292 86.2419
L94.3292 89.1436
" />
<path d="M92.8783 87.6928
L95.7800 87.6928
" />
<path d="M94.3292 93.6122
L94.3292 96.5139
" />
<path d="M92.8783 95.0631
L95.7800 95.0631
" />
<path d="M94.3292 100.9826
L94.3292 103.8843
" />
<path d="M92.8783 102.4334
L95.7800 102.4334
" />
<path d="M94.3292 108.3529
L94.3292 111.2546
" />
<path d="M92.8783 109.8037
L95.7800 109.8037
" />
</g>
<g style="fill:#000000; fill-opacity:0.0; 
stroke:#000000; stroke-width:0.4353; stroke-opacity:1; 
stroke-linecap:round; stroke-linejoin:round;">
<path style="fill:#000000; fill-opacity:0.0; 
stroke:#000000; stroke-width:0.4353; stroke-opacity:1; 
stroke-linecap:round; stroke-linejoin:round;fill:none"
d="M 136.4049,38.2081
136.4049,35.1303
133.3271,35.1303
133.3271,38.2081
Z" /> 
<path style="fill:#000000; fill-opacity:0.0; 
stroke:#000000; stroke-width:0.4353; stroke-opacity:1; 
stroke-linecap:round; stroke-linejoin:round;fill:none"
d="M 136.4049,97.6640
136.4049,94.5862
133.3271,94.5862
133.3271,97.6640
Z" /> 
</g>
<g style="fill:#000000; fill-opacity:0.0; 
stroke:#000000; stroke-width:0.5803; stroke-opacity:1; 
stroke-linecap:round; stroke-linejoin:round;">
</g>
<g style="fill:#000000; fill-opacity:0.0; 
stroke:#000000; stroke-width:0.2000; stroke-opacity:1; 
stroke-linecap:round; stroke-linejoin:round;">
<text x="88.0767" y="124.2043"
textLength="14.7667" font-size="2.6667" lengthAdjust="spacingAndGlyphs"
text-anchor="start" opacity="0">Drill Map:</text>
<g class="stroked-text"><desc>Drill Map:</desc>
<path d="M88.5529 124.1296
L88.5529 122.1296
" />
<path d="M88.5529 122.1296
L89.0291 122.1296
" />
<path d="M89.0291 122.1296
L89.3148 122.2248
" />
<path d="M89.3148 122.2248
L89.5053 122.4153
" />
<path d="M89.5053 122.4153
L89.6005 122.6057
" />
<path d="M89.6005 122.6057
L89.6958 122.9867
" />
<path d="M89.6958 122.9867
L89.6958 123.2724
" />
<path d="M89.6958 123.2724
L89.6005 123.6534
" />
<path d="M89.6005 123.6534
L89.5053 123.8438
" />
<path d="M89.5053 123.8438
L89.3148 124.0343
" />
<path d="M89.3148 124.0343
L89.0291 124.1296
" />
<path d="M89.0291 124.1296
L88.5529 124.1296
" />
<path d="M90.5529 124.1296
L90.5529 122.7962
" />
<path d="M90.5529 123.1772
L90.6482 122.9867
" />
<path d="M90.6482 122.9867
L90.7434 122.8915
" />
<path d="M90.7434 122.8915
L90.9339 122.7962
" />
<path d="M90.9339 122.7962
L91.1244 122.7962
" />
<path d="M91.7910 124.1296
L91.7910 122.7962
" />
<path d="M91.7910 122.1296
L91.6958 122.2248
" />
<path d="M91.6958 122.2248
L91.7910 122.3200
" />
<path d="M91.7910 122.3200
L91.8863 122.2248
" />
<path d="M91.8863 122.2248
L91.7910 122.1296
" />
<path d="M91.7910 122.1296
L91.7910 122.3200
" />
<path d="M93.0291 124.1296
L92.8386 124.0343
" />
<path d="M92.8386 124.0343
L92.7434 123.8438
" />
<path d="M92.7434 123.8438
L92.7434 122.1296
" />
<path d="M94.0767 124.1296
L93.8863 124.0343
" />
<path d="M93.8863 124.0343
L93.7910 123.8438
" />
<path d="M93.7910 123.8438
L93.7910 122.1296
" />
<path d="M96.3625 124.1296
L96.3625 122.1296
" />
<path d="M96.3625 122.1296
L97.0291 123.5581
" />
<path d="M97.0291 123.5581
L97.6958 122.1296
" />
<path d="M97.6958 122.1296
L97.6958 124.1296
" />
<path d="M99.5053 124.1296
L99.5053 123.0819
" />
<path d="M99.5053 123.0819
L99.4101 122.8915
" />
<path d="M99.4101 122.8915
L99.2196 122.7962
" />
<path d="M99.2196 122.7962
L98.8386 122.7962
" />
<path d="M98.8386 122.7962
L98.6482 122.8915
" />
<path d="M99.5053 124.0343
L99.3148 124.1296
" />
<path d="M99.3148 124.1296
L98.8386 124.1296
" />
<path d="M98.8386 124.1296
L98.6482 124.0343
" />
<path d="M98.6482 124.0343
L98.5529 123.8438
" />
<path d="M98.5529 123.8438
L98.5529 123.6534
" />
<path d="M98.5529 123.6534
L98.6482 123.4629
" />
<path d="M98.6482 123.4629
L98.8386 123.3677
" />
<path d="M98.8386 123.3677
L99.3148 123.3677
" />
<path d="M99.3148 123.3677
L99.5053 123.2724
" />
<path d="M100.4577 122.7962
L100.4577 124.7962
" />
<path d="M100.4577 122.8915
L100.6482 122.7962
" />
<path d="M100.6482 122.7962
L101.0291 122.7962
" />
<path d="M101.0291 122.7962
L101.2196 122.8915
" />
<path d="M101.2196 122.8915
L101.3148 122.9867
" />
<path d="M101.3148 122.9867
L101.4101 123.1772
" />
<path d="M101.4101 123.1772
L101.4101 123.7486
" />
<path d="M101.4101 123.7486
L101.3148 123.9391
" />
<path d="M101.3148 123.9391
L101.2196 124.0343
" />
<path d="M101.2196 124.0343
L101.0291 124.1296
" />
<path d="M101.0291 124.1296
L100.6482 124.1296
" />
<path d="M100.6482 124.1296
L100.4577 124.0343
" />
<path d="M102.2672 123.9391
L102.3625 124.0343
" />
<path d="M102.3625 124.0343
L102.2672 124.1296
" />
<path d="M102.2672 124.1296
L102.1720 124.0343
" />
<path d="M102.1720 124.0343
L102.2672 123.9391
" />
<path d="M102.2672 123.9391
L102.2672 124.1296
" />
<path d="M102.2672 122.8915
L102.3625 122.9867
" />
<path d="M102.3625 122.9867
L102.2672 123.0819
" />
<path d="M102.2672 123.0819
L102.1720 122.9867
" />
<path d="M102.1720 122.9867
L102.2672 122.8915
" />
<path d="M102.2672 122.8915
L102.2672 123.0819
" />
</g><path d="M84.0767 126.4043
L86.0767 128.4043
" />
<path d="M86.0767 126.4043
L84.0767 128.4043
" />
</g>
<g style="fill:#000000; fill-opacity:0.0; 
stroke:#000000; stroke-width:0.5803; stroke-opacity:1; 
stroke-linecap:round; stroke-linejoin:round;">
</g>
<g style="fill:#000000; fill-opacity:0.0; 
stroke:#000000; stroke-width:0.2000; stroke-opacity:1; 
stroke-linecap:round; stroke-linejoin:round;">
<text x="88.0767" y="128.4043"
textLength="45.1476" font-size="2.6667" lengthAdjust="spacingAndGlyphs"
text-anchor="start" opacity="0">0.800mm / 0.0315" (1 hole)</text>
<g class="stroked-text"><desc>0.800mm / 0.0315" (1 hole)</desc>
<path d="M88.9339 126.3296
L89.1244 126.3296
" />
<path d="M89.1244 126.3296
L89.3148 126.4248
" />
<path d="M89.3148 126.4248
L89.4101 126.5200
" />
<path d="M89.4101 126.5200
L89.5053 126.7105
" />
<path d="M89.5053 126.7105
L89.6005 127.0915
" />
<path d="M89.6005 127.0915
L89.6005 127.5677
" />
<path d="M89.6005 127.5677
L89.5053 127.9486
" />
<path d="M89.5053 127.9486
L89.4101 128.1391
" />
<path d="M89.4101 128.1391
L89.3148 128.2343
" />
<path d="M89.3148 128.2343
L89.1244 128.3296
" />
<path d="M89.1244 128.3296
L88.9339 128.3296
" />
<path d="M88.9339 128.3296
L88.7434 128.2343
" />
<path d="M88.7434 128.2343
L88.6482 128.1391
" />
<path d="M88.6482 128.1391
L88.5529 127.9486
" />
<path d="M88.5529 127.9486
L88.4577 127.5677
" />
<path d="M88.4577 127.5677
L88.4577 127.0915
" />
<path d="M88.4577 127.0915
L88.5529 126.7105
" />
<path d="M88.5529 126.7105
L88.6482 126.5200
" />
<path d="M88.6482 126.5200
L88.7434 126.4248
" />
<path d="M88.7434 126.4248
L88.9339 126.3296
" />
<path d="M90.4577 128.1391
L90.5529 128.2343
" />
<path d="M90.5529 128.2343
L90.4577 128.3296
" />
<path d="M90.4577 128.3296
L90.3625 128.2343
" />
<path d="M90.3625 128.2343
L90.4577 128.1391
" />
<path d="M90.4577 128.1391
L90.4577 128.3296
" />
<path d="M91.6958 127.1867
L91.5053 127.0915
" />
<path d="M91.5053 127.0915
L91.4101 126.9962
" />
<path d="M91.4101 126.9962
L91.3148 126.8057
" />
<path d="M91.3148 126.8057
L91.3148 126.7105
" />
<path d="M91.3148 126.7105
L91.4101 126.5200
" />
<path d="M91.4101 126.5200
L91.5053 126.4248
" />
<path d="M91.5053 126.4248
L91.6958 126.3296
" />
<path d="M91.6958 126.3296
L92.0767 126.3296
" />
<path d="M92.0767 126.3296
L92.2672 126.4248
" />
<path d="M92.2672 126.4248
L92.3625 126.5200
" />
<path d="M92.3625 126.5200
L92.4577 126.7105
" />
<path d="M92.4577 126.7105
L92.4577 126.8057
" />
<path d="M92.4577 126.8057
L92.3625 126.9962
" />
<path d="M92.3625 126.9962
L92.2672 127.0915
" />
<path d="M92.2672 127.0915
L92.0767 127.1867
" />
<path d="M92.0767 127.1867
L91.6958 127.1867
" />
<path d="M91.6958 127.1867
L91.5053 127.2819
" />
<path d="M91.5053 127.2819
L91.4101 127.3772
" />
<path d="M91.4101 127.3772
L91.3148 127.5677
" />
<path d="M91.3148 127.5677
L91.3148 127.9486
" />
<path d="M91.3148 127.9486
L91.4101 128.1391
" />
<path d="M91.4101 128.1391
L91.5053 128.2343
" />
<path d="M91.5053 128.2343
L91.6958 128.3296
" />
<path d="M91.6958 128.3296
L92.0767 128.3296
" />
<path d="M92.0767 128.3296
L92.2672 128.2343
" />
<path d="M92.2672 128.2343
L92.3625 128.1391
" />
<path d="M92.3625 128.1391
L92.4577 127.9486
" />
<path d="M92.4577 127.9486
L92.4577 127.5677
" />
<path d="M92.4577 127.5677
L92.3625 127.3772
" />
<path d="M92.3625 127.3772
L92.2672 127.2819
" />
<path d="M92.2672 127.2819
L92.0767 127.1867
" />
<path d="M93.6958 126.3296
L93.8863 126.3296
" />
<path d="M93.8863 126.3296
L94.0767 126.4248
" />
<path d="M94.0767 126.4248
L94.1720 126.5200
" />
<path d="M94.1720 126.5200
L94.2672 126.7105
" />
<path d="M94.2672 126.7105
L94.3625 127.0915
" />
<path d="M94.3625 127.0915
L94.3625 127.5677
" />
<path d="M94.3625 127.5677
L94.2672 127.9486
" />
<path d="M94.2672 127.9486
L94.1720 128.1391
" />
<path d="M94.1720 128.1391
L94.0767 128.2343
" />
<path d="M94.0767 128.2343
L93.8863 128.3296
" />
<path d="M93.8863 128.3296
L93.6958 128.3296
" />
<path d="M93.6958 128.3296
L93.5053 128.2343
" />
<path d="M93.5053 128.2343
L93.4101 128.1391
" />
<path d="M93.4101 128.1391
L93.3148 127.9486
" />
<path d="M93.3148 127.9486
L93.2196 127.5677
" />
<path d="M93.2196 127.5677
L93.2196 127.0915
" />
<path d="M93.2196 127.0915
L93.3148 126.7105
" />
<path d="M93.3148 126.7105
L93.4101 126.5200
" />
<path d="M93.4101 126.5200
L93.5053 126.4248
" />
<path d="M93.5053 126.4248
L93.6958 126.3296
" />
<path d="M95.6006 126.3296
L95.7910 126.3296
" />
<path d="M95.7910 126.3296
L95.9815 126.4248
" />
<path d="M95.9815 126.4248
L96.0767 126.5200
" />
<path d="M96.0767 126.5200
L96.1720 126.7105
" />
<path d="M96.1720 126.7105
L96.2672 127.0915
" />
<path d="M96.2672 127.0915
L96.2672 127.5677
" />
<path d="M96.2672 127.5677
L96.1720 127.9486
" />
<path d="M96.1720 127.9486
L96.0767 128.1391
" />
<path d="M96.0767 128.1391
L95.9815 128.2343
" />
<path d="M95.9815 128.2343
L95.7910 128.3296
" />
<path d="M95.7910 128.3296
L95.6006 128.3296
" />
<path d="M95.6006 128.3296
L95.4101 128.2343
" />
<path d="M95.4101 128.2343
L95.3148 128.1391
" />
<path d="M95.3148 128.1391
L95.2196 127.9486
" />
<path d="M95.2196 127.9486
L95.1244 127.5677
" />
<path d="M95.1244 127.5677
L95.1244 127.0915
" />
<path d="M95.1244 127.0915
L95.2196 126.7105
" />
<path d="M95.2196 126.7105
L95.3148 126.5200
" />
<path d="M95.3148 126.5200
L95.4101 126.4248
" />
<path d="M95.4101 126.4248
L95.6006 126.3296
" />
<path d="M97.1244 128.3296
L97.1244 126.9962
" />
<path d="M97.1244 127.1867
L97.2196 127.0915
" />
<path d="M97.2196 127.0915
L97.4101 126.9962
" />
<path d="M97.4101 126.9962
L97.6958 126.9962
" />
<path d="M97.6958 126.9962
L97.8863 127.0915
" />
<path d="M97.8863 127.0915
L97.9815 127.2819
" />
<path d="M97.9815 127.2819
L97.9815 128.3296
" />
<path d="M97.9815 127.2819
L98.0767 127.0915
" />
<path d="M98.0767 127.0915
L98.2672 126.9962
" />
<path d="M98.2672 126.9962
L98.5529 126.9962
" />
<path d="M98.5529 126.9962
L98.7434 127.0915
" />
<path d="M98.7434 127.0915
L98.8386 127.2819
" />
<path d="M98.8386 127.2819
L98.8386 128.3296
" />
<path d="M99.7910 128.3296
L99.7910 126.9962
" />
<path d="M99.7910 127.1867
L99.8863 127.0915
" />
<path d="M99.8863 127.0915
L100.0767 126.9962
" />
<path d="M100.0767 126.9962
L100.3625 126.9962
" />
<path d="M100.3625 126.9962
L100.5529 127.0915
" />
<path d="M100.5529 127.0915
L100.6482 127.2819
" />
<path d="M100.6482 127.2819
L100.6482 128.3296
" />
<path d="M100.6482 127.2819
L100.7434 127.0915
" />
<path d="M100.7434 127.0915
L100.9339 126.9962
" />
<path d="M100.9339 126.9962
L101.2196 126.9962
" />
<path d="M101.2196 126.9962
L101.4101 127.0915
" />
<path d="M101.4101 127.0915
L101.5053 127.2819
" />
<path d="M101.5053 127.2819
L101.5053 128.3296
" />
<path d="M105.4101 126.2343
L103.6958 128.8057
" />
<path d="M107.9815 126.3296
L108.1720 126.3296
" />
<path d="M108.1720 126.3296
L108.3625 126.4248
" />
<path d="M108.3625 126.4248
L108.4577 126.5200
" />
<path d="M108.4577 126.5200
L108.5529 126.7105
" />
<path d="M108.5529 126.7105
L108.6482 127.0915
" />
<path d="M108.6482 127.0915
L108.6482 127.5677
" />
<path d="M108.6482 127.5677
L108.5529 127.9486
" />
<path d="M108.5529 127.9486
L108.4577 128.1391
" />
<path d="M108.4577 128.1391
L108.3625 128.2343
" />
<path d="M108.3625 128.2343
L108.1720 128.3296
" />
<path d="M108.1720 128.3296
L107.9815 128.3296
" />
<path d="M107.9815 128.3296
L107.7910 128.2343
" />
<path d="M107.7910 128.2343
L107.6958 128.1391
" />
<path d="M107.6958 128.1391
L107.6006 127.9486
" />
<path d="M107.6006 127.9486
L107.5053 127.5677
" />
<path d="M107.5053 127.5677
L107.5053 127.0915
" />
<path d="M107.5053 127.0915
L107.6006 126.7105
" />
<path d="M107.6006 126.7105
L107.6958 126.5200
" />
<path d="M107.6958 126.5200
L107.7910 126.4248
" />
<path d="M107.7910 126.4248
L107.9815 126.3296
" />
<path d="M109.5053 128.1391
L109.6005 128.2343
" />
<path d="M109.6005 128.2343
L109.5053 128.3296
" />
<path d="M109.5053 128.3296
L109.4101 128.2343
" />
<path d="M109.4101 128.2343
L109.5053 128.1391
" />
<path d="M109.5053 128.1391
L109.5053 128.3296
" />
<path d="M110.8386 126.3296
L111.0291 126.3296
" />
<path d="M111.0291 126.3296
L111.2196 126.4248
" />
<path d="M111.2196 126.4248
L111.3148 126.5200
" />
<path d="M111.3148 126.5200
L111.4101 126.7105
" />
<path d="M111.4101 126.7105
L111.5053 127.0915
" />
<path d="M111.5053 127.0915
L111.5053 127.5677
" />
<path d="M111.5053 127.5677
L111.4101 127.9486
" />
<path d="M111.4101 127.9486
L111.3148 128.1391
" />
<path d="M111.3148 128.1391
L111.2196 128.2343
" />
<path d="M111.2196 128.2343
L111.0291 128.3296
" />
<path d="M111.0291 128.3296
L110.8386 128.3296
" />
<path d="M110.8386 128.3296
L110.6482 128.2343
" />
<path d="M110.6482 128.2343
L110.5529 128.1391
" />
<path d="M110.5529 128.1391
L110.4577 127.9486
" />
<path d="M110.4577 127.9486
L110.3625 127.5677
" />
<path d="M110.3625 127.5677
L110.3625 127.0915
" />
<path d="M110.3625 127.0915
L110.4577 126.7105
" />
<path d="M110.4577 126.7105
L110.5529 126.5200
" />
<path d="M110.5529 126.5200
L110.6482 126.4248
" />
<path d="M110.6482 126.4248
L110.8386 126.3296
" />
<path d="M112.1720 126.3296
L113.4101 126.3296
" />
<path d="M113.4101 126.3296
L112.7434 127.0915
" />
<path d="M112.7434 127.0915
L113.0291 127.0915
" />
<path d="M113.0291 127.0915
L113.2196 127.1867
" />
<path d="M113.2196 127.1867
L113.3148 127.2819
" />
<path d="M113.3148 127.2819
L113.4101 127.4724
" />
<path d="M113.4101 127.4724
L113.4101 127.9486
" />
<path d="M113.4101 127.9486
L113.3148 128.1391
" />
<path d="M113.3148 128.1391
L113.2196 128.2343
" />
<path d="M113.2196 128.2343
L113.0291 128.3296
" />
<path d="M113.0291 128.3296
L112.4577 128.3296
" />
<path d="M112.4577 128.3296
L112.2672 128.2343
" />
<path d="M112.2672 128.2343
L112.1720 128.1391
" />
<path d="M115.3148 128.3296
L114.1720 128.3296
" />
<path d="M114.7434 128.3296
L114.7434 126.3296
" />
<path d="M114.7434 126.3296
L114.5529 126.6153
" />
<path d="M114.5529 126.6153
L114.3625 126.8057
" />
<path d="M114.3625 126.8057
L114.1720 126.9010
" />
<path d="M117.1244 126.3296
L116.1720 126.3296
" />
<path d="M116.1720 126.3296
L116.0767 127.2819
" />
<path d="M116.0767 127.2819
L116.1720 127.1867
" />
<path d="M116.1720 127.1867
L116.3625 127.0915
" />
<path d="M116.3625 127.0915
L116.8386 127.0915
" />
<path d="M116.8386 127.0915
L117.0291 127.1867
" />
<path d="M117.0291 127.1867
L117.1244 127.2819
" />
<path d="M117.1244 127.2819
L117.2196 127.4724
" />
<path d="M117.2196 127.4724
L117.2196 127.9486
" />
<path d="M117.2196 127.9486
L117.1244 128.1391
" />
<path d="M117.1244 128.1391
L117.0291 128.2343
" />
<path d="M117.0291 128.2343
L116.8386 128.3296
" />
<path d="M116.8386 128.3296
L116.3625 128.3296
" />
<path d="M116.3625 128.3296
L116.1720 128.2343
" />
<path d="M116.1720 128.2343
L116.0767 128.1391
" />
<path d="M117.9815 126.3296
L117.9815 126.7105
" />
<path d="M118.7434 126.3296
L118.7434 126.7105
" />
<path d="M121.6958 129.0915
L121.6006 128.9962
" />
<path d="M121.6006 128.9962
L121.4101 128.7105
" />
<path d="M121.4101 128.7105
L121.3148 128.5200
" />
<path d="M121.3148 128.5200
L121.2196 128.2343
" />
<path d="M121.2196 128.2343
L121.1244 127.7581
" />
<path d="M121.1244 127.7581
L121.1244 127.3772
" />
<path d="M121.1244 127.3772
L121.2196 126.9010
" />
<path d="M121.2196 126.9010
L121.3148 126.6153
" />
<path d="M121.3148 126.6153
L121.4101 126.4248
" />
<path d="M121.4101 126.4248
L121.6006 126.1391
" />
<path d="M121.6006 126.1391
L121.6958 126.0438
" />
<path d="M123.5053 128.3296
L122.3625 128.3296
" />
<path d="M122.9339 128.3296
L122.9339 126.3296
" />
<path d="M122.9339 126.3296
L122.7434 126.6153
" />
<path d="M122.7434 126.6153
L122.5529 126.8057
" />
<path d="M122.5529 126.8057
L122.3625 126.9010
" />
<path d="M125.8863 128.3296
L125.8863 126.3296
" />
<path d="M126.7434 128.3296
L126.7434 127.2819
" />
<path d="M126.7434 127.2819
L126.6482 127.0915
" />
<path d="M126.6482 127.0915
L126.4577 126.9962
" />
<path d="M126.4577 126.9962
L126.1720 126.9962
" />
<path d="M126.1720 126.9962
L125.9815 127.0915
" />
<path d="M125.9815 127.0915
L125.8863 127.1867
" />
<path d="M127.9815 128.3296
L127.7910 128.2343
" />
<path d="M127.7910 128.2343
L127.6958 128.1391
" />
<path d="M127.6958 128.1391
L127.6006 127.9486
" />
<path d="M127.6006 127.9486
L127.6006 127.3772
" />
<path d="M127.6006 127.3772
L127.6958 127.1867
" />
<path d="M127.6958 127.1867
L127.7910 127.0915
" />
<path d="M127.7910 127.0915
L127.9815 126.9962
" />
<path d="M127.9815 126.9962
L128.2672 126.9962
" />
<path d="M128.2672 126.9962
L128.4577 127.0915
" />
<path d="M128.4577 127.0915
L128.5529 127.1867
" />
<path d="M128.5529 127.1867
L128.6482 127.3772
" />
<path d="M128.6482 127.3772
L128.6482 127.9486
" />
<path d="M128.6482 127.9486
L128.5529 128.1391
" />
<path d="M128.5529 128.1391
L128.4577 128.2343
" />
<path d="M128.4577 128.2343
L128.2672 128.3296
" />
<path d="M128.2672 128.3296
L127.9815 128.3296
" />
<path d="M129.7910 128.3296
L129.6005 128.2343
" />
<path d="M129.6005 128.2343
L129.5053 128.0438
" />
<path d="M129.5053 128.0438
L129.5053 126.3296
" />
<path d="M131.3148 128.2343
L131.1244 128.3296
" />
<path d="M131.1244 128.3296
L130.7434 128.3296
" />
<path d="M130.7434 128.3296
L130.5529 128.2343
" />
<path d="M130.5529 128.2343
L130.4577 128.0438
" />
<path d="M130.4577 128.0438
L130.4577 127.2819
" />
<path d="M130.4577 127.2819
L130.5529 127.0915
" />
<path d="M130.5529 127.0915
L130.7434 126.9962
" />
<path d="M130.7434 126.9962
L131.1244 126.9962
" />
<path d="M131.1244 126.9962
L131.3148 127.0915
" />
<path d="M131.3148 127.0915
L131.4101 127.2819
" />
<path d="M131.4101 127.2819
L131.4101 127.4724
" />
<path d="M131.4101 127.4724
L130.4577 127.6629
" />
<path d="M132.0767 129.0915
L132.1720 128.9962
" />
<path d="M132.1720 128.9962
L132.3625 128.7105
" />
<path d="M132.3625 128.7105
L132.4577 128.5200
" />
<path d="M132.4577 128.5200
L132.5529 128.2343
" />
<path d="M132.5529 128.2343
L132.6482 127.7581
" />
<path d="M132.6482 127.7581
L132.6482 127.3772
" />
<path d="M132.6482 127.3772
L132.5529 126.9010
" />
<path d="M132.5529 126.9010
L132.4577 126.6153
" />
<path d="M132.4577 126.6153
L132.3625 126.4248
" />
<path d="M132.3625 126.4248
L132.1720 126.1391
" />
<path d="M132.1720 126.1391
L132.0767 126.0438
" />
</g><circle cx="85.0767" cy="130.6043" r="1.0000" /> 
</g>
<g style="fill:#000000; fill-opacity:0.0; 
stroke:#000000; stroke-width:0.5803; stroke-opacity:1; 
stroke-linecap:round; stroke-linejoin:round;">
</g>
<g style="fill:#000000; fill-opacity:0.0; 
stroke:#000000; stroke-width:0.2000; stroke-opacity:1; 
stroke-linecap:round; stroke-linejoin:round;">
<text x="88.0767" y="131.6043"
textLength="48.6714" font-size="2.6667" lengthAdjust="spacingAndGlyphs"
text-anchor="start" opacity="0">0.800mm / 0.0315" (20 holes)</text>
<g class="stroked-text"><desc>0.800mm / 0.0315" (20 holes)</desc>
<path d="M88.9339 129.5296
L89.1244 129.5296
" />
<path d="M89.1244 129.5296
L89.3148 129.6248
" />
<path d="M89.3148 129.6248
L89.4101 129.7200
" />
<path d="M89.4101 129.7200
L89.5053 129.9105
" />
<path d="M89.5053 129.9105
L89.6005 130.2915
" />
<path d="M89.6005 130.2915
L89.6005 130.7676
" />
<path d="M89.6005 130.7676
L89.5053 131.1486
" />
<path d="M89.5053 131.1486
L89.4101 131.3391
" />
<path d="M89.4101 131.3391
L89.3148 131.4343
" />
<path d="M89.3148 131.4343
L89.1244 131.5296
" />
<path d="M89.1244 131.5296
L88.9339 131.5296
" />
<path d="M88.9339 131.5296
L88.7434 131.4343
" />
<path d="M88.7434 131.4343
L88.6482 131.3391
" />
<path d="M88.6482 131.3391
L88.5529 131.1486
" />
<path d="M88.5529 131.1486
L88.4577 130.7676
" />
<path d="M88.4577 130.7676
L88.4577 130.2915
" />
<path d="M88.4577 130.2915
L88.5529 129.9105
" />
<path d="M88.5529 129.9105
L88.6482 129.7200
" />
<path d="M88.6482 129.7200
L88.7434 129.6248
" />
<path d="M88.7434 129.6248
L88.9339 129.5296
" />
<path d="M90.4577 131.3391
L90.5529 131.4343
" />
<path d="M90.5529 131.4343
L90.4577 131.5296
" />
<path d="M90.4577 131.5296
L90.3625 131.4343
" />
<path d="M90.3625 131.4343
L90.4577 131.3391
" />
<path d="M90.4577 131.3391
L90.4577 131.5296
" />
<path d="M91.6958 130.3867
L91.5053 130.2915
" />
<path d="M91.5053 130.2915
L91.4101 130.1962
" />
<path d="M91.4101 130.1962
L91.3148 130.0057
" />
<path d="M91.3148 130.0057
L91.3148 129.9105
" />
<path d="M91.3148 129.9105
L91.4101 129.7200
" />
<path d="M91.4101 129.7200
L91.5053 129.6248
" />
<path d="M91.5053 129.6248
L91.6958 129.5296
" />
<path d="M91.6958 129.5296
L92.0767 129.5296
" />
<path d="M92.0767 129.5296
L92.2672 129.6248
" />
<path d="M92.2672 129.6248
L92.3625 129.7200
" />
<path d="M92.3625 129.7200
L92.4577 129.9105
" />
<path d="M92.4577 129.9105
L92.4577 130.0057
" />
<path d="M92.4577 130.0057
L92.3625 130.1962
" />
<path d="M92.3625 130.1962
L92.2672 130.2915
" />
<path d="M92.2672 130.2915
L92.0767 130.3867
" />
<path d="M92.0767 130.3867
L91.6958 130.3867
" />
<path d="M91.6958 130.3867
L91.5053 130.4819
" />
<path d="M91.5053 130.4819
L91.4101 130.5772
" />
<path d="M91.4101 130.5772
L91.3148 130.7676
" />
<path d="M91.3148 130.7676
L91.3148 131.1486
" />
<path d="M91.3148 131.1486
L91.4101 131.3391
" />
<path d="M91.4101 131.3391
L91.5053 131.4343
" />
<path d="M91.5053 131.4343
L91.6958 131.5296
" />
<path d="M91.6958 131.5296
L92.0767 131.5296
" />
<path d="M92.0767 131.5296
L92.2672 131.4343
" />
<path d="M92.2672 131.4343
L92.3625 131.3391
" />
<path d="M92.3625 131.3391
L92.4577 131.1486
" />
<path d="M92.4577 131.1486
L92.4577 130.7676
" />
<path d="M92.4577 130.7676
L92.3625 130.5772
" />
<path d="M92.3625 130.5772
L92.2672 130.4819
" />
<path d="M92.2672 130.4819
L92.0767 130.3867
" />
<path d="M93.6958 129.5296
L93.8863 129.5296
" />
<path d="M93.8863 129.5296
L94.0767 129.6248
" />
<path d="M94.0767 129.6248
L94.1720 129.7200
" />
<path d="M94.1720 129.7200
L94.2672 129.9105
" />
<path d="M94.2672 129.9105
L94.3625 130.2915
" />
<path d="M94.3625 130.2915
L94.3625 130.7676
" />
<path d="M94.3625 130.7676
L94.2672 131.1486
" />
<path d="M94.2672 131.1486
L94.1720 131.3391
" />
<path d="M94.1720 131.3391
L94.0767 131.4343
" />
<path d="M94.0767 131.4343
L93.8863 131.5296
" />
<path d="M93.8863 131.5296
L93.6958 131.5296
" />
<path d="M93.6958 131.5296
L93.5053 131.4343
" />
<path d="M93.5053 131.4343
L93.4101 131.3391
" />
<path d="M93.4101 131.3391
L93.3148 131.1486
" />
<path d="M93.3148 131.1486
L93.2196 130.7676
" />
<path d="M93.2196 130.7676
L93.2196 130.2915
" />
<path d="M93.2196 130.2915
L93.3148 129.9105
" />
<path d="M93.3148 129.9105
L93.4101 129.7200
" />
<path d="M93.4101 129.7200
L93.5053 129.6248
" />
<path d="M93.5053 129.6248
L93.6958 129.5296
" />
<path d="M95.6006 129.5296
L95.7910 129.5296
" />
<path d="M95.7910 129.5296
L95.9815 129.6248
" />
<path d="M95.9815 129.6248
L96.0767 129.7200
" />
<path d="M96.0767 129.7200
L96.1720 129.9105
" />
<path d="M96.1720 129.9105
L96.2672 130.2915
" />
<path d="M96.2672 130.2915
L96.2672 130.7676
" />
<path d="M96.2672 130.7676
L96.1720 131.1486
" />
<path d="M96.1720 131.1486
L96.0767 131.3391
" />
<path d="M96.0767 131.3391
L95.9815 131.4343
" />
<path d="M95.9815 131.4343
L95.7910 131.5296
" />
<path d="M95.7910 131.5296
L95.6006 131.5296
" />
<path d="M95.6006 131.5296
L95.4101 131.4343
" />
<path d="M95.4101 131.4343
L95.3148 131.3391
" />
<path d="M95.3148 131.3391
L95.2196 131.1486
" />
<path d="M95.2196 131.1486
L95.1244 130.7676
" />
<path d="M95.1244 130.7676
L95.1244 130.2915
" />
<path d="M95.1244 130.2915
L95.2196 129.9105
" />
<path d="M95.2196 129.9105
L95.3148 129.7200
" />
<path d="M95.3148 129.7200
L95.4101 129.6248
" />
<path d="M95.4101 129.6248
L95.6006 129.5296
" />
<path d="M97.1244 131.5296
L97.1244 130.1962
" />
<path d="M97.1244 130.3867
L97.2196 130.2915
" />
<path d="M97.2196 130.2915
L97.4101 130.1962
" />
<path d="M97.4101 130.1962
L97.6958 130.1962
" />
<path d="M97.6958 130.1962
L97.8863 130.2915
" />
<path d="M97.8863 130.2915
L97.9815 130.4819
" />
<path d="M97.9815 130.4819
L97.9815 131.5296
" />
<path d="M97.9815 130.4819
L98.0767 130.2915
" />
<path d="M98.0767 130.2915
L98.2672 130.1962
" />
<path d="M98.2672 130.1962
L98.5529 130.1962
" />
<path d="M98.5529 130.1962
L98.7434 130.2915
" />
<path d="M98.7434 130.2915
L98.8386 130.4819
" />
<path d="M98.8386 130.4819
L98.8386 131.5296
" />
<path d="M99.7910 131.5296
L99.7910 130.1962
" />
<path d="M99.7910 130.3867
L99.8863 130.2915
" />
<path d="M99.8863 130.2915
L100.0767 130.1962
" />
<path d="M100.0767 130.1962
L100.3625 130.1962
" />
<path d="M100.3625 130.1962
L100.5529 130.2915
" />
<path d="M100.5529 130.2915
L100.6482 130.4819
" />
<path d="M100.6482 130.4819
L100.6482 131.5296
" />
<path d="M100.6482 130.4819
L100.7434 130.2915
" />
<path d="M100.7434 130.2915
L100.9339 130.1962
" />
<path d="M100.9339 130.1962
L101.2196 130.1962
" />
<path d="M101.2196 130.1962
L101.4101 130.2915
" />
<path d="M101.4101 130.2915
L101.5053 130.4819
" />
<path d="M101.5053 130.4819
L101.5053 131.5296
" />
<path d="M105.4101 129.4343
L103.6958 132.0057
" />
<path d="M107.9815 129.5296
L108.1720 129.5296
" />
<path d="M108.1720 129.5296
L108.3625 129.6248
" />
<path d="M108.3625 129.6248
L108.4577 129.7200
" />
<path d="M108.4577 129.7200
L108.5529 129.9105
" />
<path d="M108.5529 129.9105
L108.6482 130.2915
" />
<path d="M108.6482 130.2915
L108.6482 130.7676
" />
<path d="M108.6482 130.7676
L108.5529 131.1486
" />
<path d="M108.5529 131.1486
L108.4577 131.3391
" />
<path d="M108.4577 131.3391
L108.3625 131.4343
" />
<path d="M108.3625 131.4343
L108.1720 131.5296
" />
<path d="M108.1720 131.5296
L107.9815 131.5296
" />
<path d="M107.9815 131.5296
L107.7910 131.4343
" />
<path d="M107.7910 131.4343
L107.6958 131.3391
" />
<path d="M107.6958 131.3391
L107.6006 131.1486
" />
<path d="M107.6006 131.1486
L107.5053 130.7676
" />
<path d="M107.5053 130.7676
L107.5053 130.2915
" />
<path d="M107.5053 130.2915
L107.6006 129.9105
" />
<path d="M107.6006 129.9105
L107.6958 129.7200
" />
<path d="M107.6958 129.7200
L107.7910 129.6248
" />
<path d="M107.7910 129.6248
L107.9815 129.5296
" />
<path d="M109.5053 131.3391
L109.6005 131.4343
" />
<path d="M109.6005 131.4343
L109.5053 131.5296
" />
<path d="M109.5053 131.5296
L109.4101 131.4343
" />
<path d="M109.4101 131.4343
L109.5053 131.3391
" />
<path d="M109.5053 131.3391
L109.5053 131.5296
" />
<path d="M110.8386 129.5296
L111.0291 129.5296
" />
<path d="M111.0291 129.5296
L111.2196 129.6248
" />
<path d="M111.2196 129.6248
L111.3148 129.7200
" />
<path d="M111.3148 129.7200
L111.4101 129.9105
" />
<path d="M111.4101 129.9105
L111.5053 130.2915
" />
<path d="M111.5053 130.2915
L111.5053 130.7676
" />
<path d="M111.5053 130.7676
L111.4101 131.1486
" />
<path d="M111.4101 131.1486
L111.3148 131.3391
" />
<path d="M111.3148 131.3391
L111.2196 131.4343
" />
<path d="M111.2196 131.4343
L111.0291 131.5296
" />
<path d="M111.0291 131.5296
L110.8386 131.5296
" />
<path d="M110.8386 131.5296
L110.6482 131.4343
" />
<path d="M110.6482 131.4343
L110.5529 131.3391
" />
<path d="M110.5529 131.3391
L110.4577 131.1486
" />
<path d="M110.4577 131.1486
L110.3625 130.7676
" />
<path d="M110.3625 130.7676
L110.3625 130.2915
" />
<path d="M110.3625 130.2915
L110.4577 129.9105
" />
<path d="M110.4577 129.9105
L110.5529 129.7200
" />
<path d="M110.5529 129.7200
L110.6482 129.6248
" />
<path d="M110.6482 129.6248
L110.8386 129.5296
" />
<path d="M112.1720 129.5296
L113.4101 129.5296
" />
<path d="M113.4101 129.5296
L112.7434 130.2915
" />
<path d="M112.7434 130.2915
L113.0291 130.2915
" />
<path d="M113.0291 130.2915
L113.2196 130.3867
" />
<path d="M113.2196 130.3867
L113.3148 130.4819
" />
<path d="M113.3148 130.4819
L113.4101 130.6724
" />
<path d="M113.4101 130.6724
L113.4101 131.1486
" />
<path d="M113.4101 131.1486
L113.3148 131.3391
" />
<path d="M113.3148 131.3391
L113.2196 131.4343
" />
<path d="M113.2196 131.4343
L113.0291 131.5296
" />
<path d="M113.0291 131.5296
L112.4577 131.5296
" />
<path d="M112.4577 131.5296
L112.2672 131.4343
" />
<path d="M112.2672 131.4343
L112.1720 131.3391
" />
<path d="M115.3148 131.5296
L114.1720 131.5296
" />
<path d="M114.7434 131.5296
L114.7434 129.5296
" />
<path d="M114.7434 129.5296
L114.5529 129.8153
" />
<path d="M114.5529 129.8153
L114.3625 130.0057
" />
<path d="M114.3625 130.0057
L114.1720 130.1010
" />
<path d="M117.1244 129.5296
L116.1720 129.5296
" />
<path d="M116.1720 129.5296
L116.0767 130.4819
" />
<path d="M116.0767 130.4819
L116.1720 130.3867
" />
<path d="M116.1720 130.3867
L116.3625 130.2915
" />
<path d="M116.3625 130.2915
L116.8386 130.2915
" />
<path d="M116.8386 130.2915
L117.0291 130.3867
" />
<path d="M117.0291 130.3867
L117.1244 130.4819
" />
<path d="M117.1244 130.4819
L117.2196 130.6724
" />
<path d="M117.2196 130.6724
L117.2196 131.1486
" />
<path d="M117.2196 131.1486
L117.1244 131.3391
" />
<path d="M117.1244 131.3391
L117.0291 131.4343
" />
<path d="M117.0291 131.4343
L116.8386 131.5296
" />
<path d="M116.8386 131.5296
L116.3625 131.5296
" />
<path d="M116.3625 131.5296
L116.1720 131.4343
" />
<path d="M116.1720 131.4343
L116.0767 131.3391
" />
<path d="M117.9815 129.5296
L117.9815 129.9105
" />
<path d="M118.7434 129.5296
L118.7434 129.9105
" />
<path d="M121.6958 132.2915
L121.6006 132.1962
" />
<path d="M121.6006 132.1962
L121.4101 131.9105
" />
<path d="M121.4101 131.9105
L121.3148 131.7200
" />
<path d="M121.3148 131.7200
L121.2196 131.4343
" />
<path d="M121.2196 131.4343
L121.1244 130.9581
" />
<path d="M121.1244 130.9581
L121.1244 130.5772
" />
<path d="M121.1244 130.5772
L121.2196 130.1010
" />
<path d="M121.2196 130.1010
L121.3148 129.8153
" />
<path d="M121.3148 129.8153
L121.4101 129.6248
" />
<path d="M121.4101 129.6248
L121.6006 129.3391
" />
<path d="M121.6006 129.3391
L121.6958 129.2438
" />
<path d="M122.3625 129.7200
L122.4577 129.6248
" />
<path d="M122.4577 129.6248
L122.6482 129.5296
" />
<path d="M122.6482 129.5296
L123.1244 129.5296
" />
<path d="M123.1244 129.5296
L123.3148 129.6248
" />
<path d="M123.3148 129.6248
L123.4101 129.7200
" />
<path d="M123.4101 129.7200
L123.5053 129.9105
" />
<path d="M123.5053 129.9105
L123.5053 130.1010
" />
<path d="M123.5053 130.1010
L123.4101 130.3867
" />
<path d="M123.4101 130.3867
L122.2672 131.5296
" />
<path d="M122.2672 131.5296
L123.5053 131.5296
" />
<path d="M124.7434 129.5296
L124.9339 129.5296
" />
<path d="M124.9339 129.5296
L125.1244 129.6248
" />
<path d="M125.1244 129.6248
L125.2196 129.7200
" />
<path d="M125.2196 129.7200
L125.3148 129.9105
" />
<path d="M125.3148 129.9105
L125.4101 130.2915
" />
<path d="M125.4101 130.2915
L125.4101 130.7676
" />
<path d="M125.4101 130.7676
L125.3148 131.1486
" />
<path d="M125.3148 131.1486
L125.2196 131.3391
" />
<path d="M125.2196 131.3391
L125.1244 131.4343
" />
<path d="M125.1244 131.4343
L124.9339 131.5296
" />
<path d="M124.9339 131.5296
L124.7434 131.5296
" />
<path d="M124.7434 131.5296
L124.5529 131.4343
" />
<path d="M124.5529 131.4343
L124.4577 131.3391
" />
<path d="M124.4577 131.3391
L124.3625 131.1486
" />
<path d="M124.3625 131.1486
L124.2672 130.7676
" />
<path d="M124.2672 130.7676
L124.2672 130.2915
" />
<path d="M124.2672 130.2915
L124.3625 129.9105
" />
<path d="M124.3625 129.9105
L124.4577 129.7200
" />
<path d="M124.4577 129.7200
L124.5529 129.6248
" />
<path d="M124.5529 129.6248
L124.7434 129.5296
" />
<path d="M127.7910 131.5296
L127.7910 129.5296
" />
<path d="M128.6482 131.5296
L128.6482 130.4819
" />
<path d="M128.6482 130.4819
L128.5529 130.2915
" />
<path d="M128.5529 130.2915
L128.3625 130.1962
" />
<path d="M128.3625 130.1962
L128.0767 130.1962
" />
<path d="M128.0767 130.1962
L127.8863 130.2915
" />
<path d="M127.8863 130.2915
L127.7910 130.3867
" />
<path d="M129.8863 131.5296
L129.6958 131.4343
" />
<path d="M129.6958 131.4343
L129.6006 131.3391
" />
<path d="M129.6006 131.3391
L129.5053 131.1486
" />
<path d="M129.5053 131.1486
L129.5053 130.5772
" />
<path d="M129.5053 130.5772
L129.6006 130.3867
" />
<path d="M129.6006 130.3867
L129.6958 130.2915
" />
<path d="M129.6958 130.2915
L129.8863 130.1962
" />
<path d="M129.8863 130.1962
L130.1720 130.1962
" />
<path d="M130.1720 130.1962
L130.3625 130.2915
" />
<path d="M130.3625 130.2915
L130.4577 130.3867
" />
<path d="M130.4577 130.3867
L130.5529 130.5772
" />
<path d="M130.5529 130.5772
L130.5529 131.1486
" />
<path d="M130.5529 131.1486
L130.4577 131.3391
" />
<path d="M130.4577 131.3391
L130.3625 131.4343
" />
<path d="M130.3625 131.4343
L130.1720 131.5296
" />
<path d="M130.1720 131.5296
L129.8863 131.5296
" />
<path d="M131.6958 131.5296
L131.5053 131.4343
" />
<path d="M131.5053 131.4343
L131.4101 131.2438
" />
<path d="M131.4101 131.2438
L131.4101 129.5296
" />
<path d="M133.2196 131.4343
L133.0291 131.5296
" />
<path d="M133.0291 131.5296
L132.6482 131.5296
" />
<path d="M132.6482 131.5296
L132.4577 131.4343
" />
<path d="M132.4577 131.4343
L132.3625 131.2438
" />
<path d="M132.3625 131.2438
L132.3625 130.4819
" />
<path d="M132.3625 130.4819
L132.4577 130.2915
" />
<path d="M132.4577 130.2915
L132.6482 130.1962
" />
<path d="M132.6482 130.1962
L133.0291 130.1962
" />
<path d="M133.0291 130.1962
L133.2196 130.2915
" />
<path d="M133.2196 130.2915
L133.3148 130.4819
" />
<path d="M133.3148 130.4819
L133.3148 130.6724
" />
<path d="M133.3148 130.6724
L132.3625 130.8629
" />
<path d="M134.0767 131.4343
L134.2672 131.5296
" />
<path d="M134.2672 131.5296
L134.6482 131.5296
" />
<path d="M134.6482 131.5296
L134.8386 131.4343
" />
<path d="M134.8386 131.4343
L134.9339 131.2438
" />
<path d="M134.9339 131.2438
L134.9339 131.1486
" />
<path d="M134.9339 131.1486
L134.8386 130.9581
" />
<path d="M134.8386 130.9581
L134.6482 130.8629
" />
<path d="M134.6482 130.8629
L134.3625 130.8629
" />
<path d="M134.3625 130.8629
L134.1720 130.7676
" />
<path d="M134.1720 130.7676
L134.0767 130.5772
" />
<path d="M134.0767 130.5772
L134.0767 130.4819
" />
<path d="M134.0767 130.4819
L134.1720 130.2915
" />
<path d="M134.1720 130.2915
L134.3625 130.1962
" />
<path d="M134.3625 130.1962
L134.6482 130.1962
" />
<path d="M134.6482 130.1962
L134.8386 130.2915
" />
<path d="M135.6006 132.2915
L135.6958 132.1962
" />
<path d="M135.6958 132.1962
L135.8863 131.9105
" />
<path d="M135.8863 131.9105
L135.9815 131.7200
" />
<path d="M135.9815 131.7200
L136.0767 131.4343
" />
<path d="M136.0767 131.4343
L136.1720 130.9581
" />
<path d="M136.1720 130.9581
L136.1720 130.5772
" />
<path d="M136.1720 130.5772
L136.0767 130.1010
" />
<path d="M136.0767 130.1010
L135.9815 129.8153
" />
<path d="M135.9815 129.8153
L135.8863 129.6248
" />
<path d="M135.8863 129.6248
L135.6958 129.3391
" />
<path d="M135.6958 129.3391
L135.6006 129.2438
" />
</g><path d="M85.0767 132.8043
L85.0767 134.8043
" />
<path d="M84.0767 133.8043
L86.0767 133.8043
" />
</g>
<g style="fill:#000000; fill-opacity:0.0; 
stroke:#000000; stroke-width:0.5803; stroke-opacity:1; 
stroke-linecap:round; stroke-linejoin:round;">
</g>
<g style="fill:#000000; fill-opacity:0.0; 
stroke:#000000; stroke-width:0.2000; stroke-opacity:1; 
stroke-linecap:round; stroke-linejoin:round;">
<text x="88.0767" y="134.8043"
textLength="48.6714" font-size="2.6667" lengthAdjust="spacingAndGlyphs"
text-anchor="start" opacity="0">1.000mm / 0.0394" (14 holes)</text>
<g class="stroked-text"><desc>1.000mm / 0.0394" (14 holes)</desc>
<path d="M89.6005 134.7296
L88.4577 134.7296
" />
<path d="M89.0291 134.7296
L89.0291 132.7296
" />
<path d="M89.0291 132.7296
L88.8386 133.0153
" />
<path d="M88.8386 133.0153
L88.6482 133.2057
" />
<path d="M88.6482 133.2057
L88.4577 133.3010
" />
<path d="M90.4577 134.5391
L90.5529 134.6343
" />
<path d="M90.5529 134.6343
L90.4577 134.7296
" />
<path d="M90.4577 134.7296
L90.3625 134.6343
" />
<path d="M90.3625 134.6343
L90.4577 134.5391
" />
<path d="M90.4577 134.5391
L90.4577 134.7296
" />
<path d="M91.7910 132.7296
L91.9815 132.7296
" />
<path d="M91.9815 132.7296
L92.1720 132.8248
" />
<path d="M92.1720 132.8248
L92.2672 132.9200
" />
<path d="M92.2672 132.9200
L92.3625 133.1105
" />
<path d="M92.3625 133.1105
L92.4577 133.4915
" />
<path d="M92.4577 133.4915
L92.4577 133.9676
" />
<path d="M92.4577 133.9676
L92.3625 134.3486
" />
<path d="M92.3625 134.3486
L92.2672 134.5391
" />
<path d="M92.2672 134.5391
L92.1720 134.6343
" />
<path d="M92.1720 134.6343
L91.9815 134.7296
" />
<path d="M91.9815 134.7296
L91.7910 134.7296
" />
<path d="M91.7910 134.7296
L91.6006 134.6343
" />
<path d="M91.6006 134.6343
L91.5053 134.5391
" />
<path d="M91.5053 134.5391
L91.4101 134.3486
" />
<path d="M91.4101 134.3486
L91.3148 133.9676
" />
<path d="M91.3148 133.9676
L91.3148 133.4915
" />
<path d="M91.3148 133.4915
L91.4101 133.1105
" />
<path d="M91.4101 133.1105
L91.5053 132.9200
" />
<path d="M91.5053 132.9200
L91.6006 132.8248
" />
<path d="M91.6006 132.8248
L91.7910 132.7296
" />
<path d="M93.6958 132.7296
L93.8863 132.7296
" />
<path d="M93.8863 132.7296
L94.0767 132.8248
" />
<path d="M94.0767 132.8248
L94.1720 132.9200
" />
<path d="M94.1720 132.9200
L94.2672 133.1105
" />
<path d="M94.2672 133.1105
L94.3625 133.4915
" />
<path d="M94.3625 133.4915
L94.3625 133.9676
" />
<path d="M94.3625 133.9676
L94.2672 134.3486
" />
<path d="M94.2672 134.3486
L94.1720 134.5391
" />
<path d="M94.1720 134.5391
L94.0767 134.6343
" />
<path d="M94.0767 134.6343
L93.8863 134.7296
" />
<path d="M93.8863 134.7296
L93.6958 134.7296
" />
<path d="M93.6958 134.7296
L93.5053 134.6343
" />
<path d="M93.5053 134.6343
L93.4101 134.5391
" />
<path d="M93.4101 134.5391
L93.3148 134.3486
" />
<path d="M93.3148 134.3486
L93.2196 133.9676
" />
<path d="M93.2196 133.9676
L93.2196 133.4915
" />
<path d="M93.2196 133.4915
L93.3148 133.1105
" />
<path d="M93.3148 133.1105
L93.4101 132.9200
" />
<path d="M93.4101 132.9200
L93.5053 132.8248
" />
<path d="M93.5053 132.8248
L93.6958 132.7296
" />
<path d="M95.6006 132.7296
L95.7910 132.7296
" />
<path d="M95.7910 132.7296
L95.9815 132.8248
" />
<path d="M95.9815 132.8248
L96.0767 132.9200
" />
<path d="M96.0767 132.9200
L96.1720 133.1105
" />
<path d="M96.1720 133.1105
L96.2672 133.4915
" />
<path d="M96.2672 133.4915
L96.2672 133.9676
" />
<path d="M96.2672 133.9676
L96.1720 134.3486
" />
<path d="M96.1720 134.3486
L96.0767 134.5391
" />
<path d="M96.0767 134.5391
L95.9815 134.6343
" />
<path d="M95.9815 134.6343
L95.7910 134.7296
" />
<path d="M95.7910 134.7296
L95.6006 134.7296
" />
<path d="M95.6006 134.7296
L95.4101 134.6343
" />
<path d="M95.4101 134.6343
L95.3148 134.5391
" />
<path d="M95.3148 134.5391
L95.2196 134.3486
" />
<path d="M95.2196 134.3486
L95.1244 133.9676
" />
<path d="M95.1244 133.9676
L95.1244 133.4915
" />
<path d="M95.1244 133.4915
L95.2196 133.1105
" />
<path d="M95.2196 133.1105
L95.3148 132.9200
" />
<path d="M95.3148 132.9200
L95.4101 132.8248
" />
<path d="M95.4101 132.8248
L95.6006 132.7296
" />
<path d="M97.1244 134.7296
L97.1244 133.3962
" />
<path d="M97.1244 133.5867
L97.2196 133.4915
" />
<path d="M97.2196 133.4915
L97.4101 133.3962
" />
<path d="M97.4101 133.3962
L97.6958 133.3962
" />
<path d="M97.6958 133.3962
L97.8863 133.4915
" />
<path d="M97.8863 133.4915
L97.9815 133.6819
" />
<path d="M97.9815 133.6819
L97.9815 134.7296
" />
<path d="M97.9815 133.6819
L98.0767 133.4915
" />
<path d="M98.0767 133.4915
L98.2672 133.3962
" />
<path d="M98.2672 133.3962
L98.5529 133.3962
" />
<path d="M98.5529 133.3962
L98.7434 133.4915
" />
<path d="M98.7434 133.4915
L98.8386 133.6819
" />
<path d="M98.8386 133.6819
L98.8386 134.7296
" />
<path d="M99.7910 134.7296
L99.7910 133.3962
" />
<path d="M99.7910 133.5867
L99.8863 133.4915
" />
<path d="M99.8863 133.4915
L100.0767 133.3962
" />
<path d="M100.0767 133.3962
L100.3625 133.3962
" />
<path d="M100.3625 133.3962
L100.5529 133.4915
" />
<path d="M100.5529 133.4915
L100.6482 133.6819
" />
<path d="M100.6482 133.6819
L100.6482 134.7296
" />
<path d="M100.6482 133.6819
L100.7434 133.4915
" />
<path d="M100.7434 133.4915
L100.9339 133.3962
" />
<path d="M100.9339 133.3962
L101.2196 133.3962
" />
<path d="M101.2196 133.3962
L101.4101 133.4915
" />
<path d="M101.4101 133.4915
L101.5053 133.6819
" />
<path d="M101.5053 133.6819
L101.5053 134.7296
" />
<path d="M105.4101 132.6343
L103.6958 135.2057
" />
<path d="M107.9815 132.7296
L108.1720 132.7296
" />
<path d="M108.1720 132.7296
L108.3625 132.8248
" />
<path d="M108.3625 132.8248
L108.4577 132.9200
" />
<path d="M108.4577 132.9200
L108.5529 133.1105
" />
<path d="M108.5529 133.1105
L108.6482 133.4915
" />
<path d="M108.6482 133.4915
L108.6482 133.9676
" />
<path d="M108.6482 133.9676
L108.5529 134.3486
" />
<path d="M108.5529 134.3486
L108.4577 134.5391
" />
<path d="M108.4577 134.5391
L108.3625 134.6343
" />
<path d="M108.3625 134.6343
L108.1720 134.7296
" />
<path d="M108.1720 134.7296
L107.9815 134.7296
" />
<path d="M107.9815 134.7296
L107.7910 134.6343
" />
<path d="M107.7910 134.6343
L107.6958 134.5391
" />
<path d="M107.6958 134.5391
L107.6006 134.3486
" />
<path d="M107.6006 134.3486
L107.5053 133.9676
" />
<path d="M107.5053 133.9676
L107.5053 133.4915
" />
<path d="M107.5053 133.4915
L107.6006 133.1105
" />
<path d="M107.6006 133.1105
L107.6958 132.9200
" />
<path d="M107.6958 132.9200
L107.7910 132.8248
" />
<path d="M107.7910 132.8248
L107.9815 132.7296
" />
<path d="M109.5053 134.5391
L109.6005 134.6343
" />
<path d="M109.6005 134.6343
L109.5053 134.7296
" />
<path d="M109.5053 134.7296
L109.4101 134.6343
" />
<path d="M109.4101 134.6343
L109.5053 134.5391
" />
<path d="M109.5053 134.5391
L109.5053 134.7296
" />
<path d="M110.8386 132.7296
L111.0291 132.7296
" />
<path d="M111.0291 132.7296
L111.2196 132.8248
" />
<path d="M111.2196 132.8248
L111.3148 132.9200
" />
<path d="M111.3148 132.9200
L111.4101 133.1105
" />
<path d="M111.4101 133.1105
L111.5053 133.4915
" />
<path d="M111.5053 133.4915
L111.5053 133.9676
" />
<path d="M111.5053 133.9676
L111.4101 134.3486
" />
<path d="M111.4101 134.3486
L111.3148 134.5391
" />
<path d="M111.3148 134.5391
L111.2196 134.6343
" />
<path d="M111.2196 134.6343
L111.0291 134.7296
" />
<path d="M111.0291 134.7296
L110.8386 134.7296
" />
<path d="M110.8386 134.7296
L110.6482 134.6343
" />
<path d="M110.6482 134.6343
L110.5529 134.5391
" />
<path d="M110.5529 134.5391
L110.4577 134.3486
" />
<path d="M110.4577 134.3486
L110.3625 133.9676
" />
<path d="M110.3625 133.9676
L110.3625 133.4915
" />
<path d="M110.3625 133.4915
L110.4577 133.1105
" />
<path d="M110.4577 133.1105
L110.5529 132.9200
" />
<path d="M110.5529 132.9200
L110.6482 132.8248
" />
<path d="M110.6482 132.8248
L110.8386 132.7296
" />
<path d="M112.1720 132.7296
L113.4101 132.7296
" />
<path d="M113.4101 132.7296
L112.7434 133.4915
" />
<path d="M112.7434 133.4915
L113.0291 133.4915
" />
<path d="M113.0291 133.4915
L113.2196 133.5867
" />
<path d="M113.2196 133.5867
L113.3148 133.6819
" />
<path d="M113.3148 133.6819
L113.4101 133.8724
" />
<path d="M113.4101 133.8724
L113.4101 134.3486
" />
<path d="M113.4101 134.3486
L113.3148 134.5391
" />
<path d="M113.3148 134.5391
L113.2196 134.6343
" />
<path d="M113.2196 134.6343
L113.0291 134.7296
" />
<path d="M113.0291 134.7296
L112.4577 134.7296
" />
<path d="M112.4577 134.7296
L112.2672 134.6343
" />
<path d="M112.2672 134.6343
L112.1720 134.5391
" />
<path d="M114.3625 134.7296
L114.7434 134.7296
" />
<path d="M114.7434 134.7296
L114.9339 134.6343
" />
<path d="M114.9339 134.6343
L115.0291 134.5391
" />
<path d="M115.0291 134.5391
L115.2196 134.2534
" />
<path d="M115.2196 134.2534
L115.3148 133.8724
" />
<path d="M115.3148 133.8724
L115.3148 133.1105
" />
<path d="M115.3148 133.1105
L115.2196 132.9200
" />
<path d="M115.2196 132.9200
L115.1244 132.8248
" />
<path d="M115.1244 132.8248
L114.9339 132.7296
" />
<path d="M114.9339 132.7296
L114.5529 132.7296
" />
<path d="M114.5529 132.7296
L114.3625 132.8248
" />
<path d="M114.3625 132.8248
L114.2672 132.9200
" />
<path d="M114.2672 132.9200
L114.1720 133.1105
" />
<path d="M114.1720 133.1105
L114.1720 133.5867
" />
<path d="M114.1720 133.5867
L114.2672 133.7772
" />
<path d="M114.2672 133.7772
L114.3625 133.8724
" />
<path d="M114.3625 133.8724
L114.5529 133.9676
" />
<path d="M114.5529 133.9676
L114.9339 133.9676
" />
<path d="M114.9339 133.9676
L115.1244 133.8724
" />
<path d="M115.1244 133.8724
L115.2196 133.7772
" />
<path d="M115.2196 133.7772
L115.3148 133.5867
" />
<path d="M117.0291 133.3962
L117.0291 134.7296
" />
<path d="M116.5529 132.6343
L116.0767 134.0629
" />
<path d="M116.0767 134.0629
L117.3148 134.0629
" />
<path d="M117.9815 132.7296
L117.9815 133.1105
" />
<path d="M118.7434 132.7296
L118.7434 133.1105
" />
<path d="M121.6958 135.4915
L121.6006 135.3962
" />
<path d="M121.6006 135.3962
L121.4101 135.1105
" />
<path d="M121.4101 135.1105
L121.3148 134.9200
" />
<path d="M121.3148 134.9200
L121.2196 134.6343
" />
<path d="M121.2196 134.6343
L121.1244 134.1581
" />
<path d="M121.1244 134.1581
L121.1244 133.7772
" />
<path d="M121.1244 133.7772
L121.2196 133.3010
" />
<path d="M121.2196 133.3010
L121.3148 133.0153
" />
<path d="M121.3148 133.0153
L121.4101 132.8248
" />
<path d="M121.4101 132.8248
L121.6006 132.5391
" />
<path d="M121.6006 132.5391
L121.6958 132.4438
" />
<path d="M123.5053 134.7296
L122.3625 134.7296
" />
<path d="M122.9339 134.7296
L122.9339 132.7296
" />
<path d="M122.9339 132.7296
L122.7434 133.0153
" />
<path d="M122.7434 133.0153
L122.5529 133.2057
" />
<path d="M122.5529 133.2057
L122.3625 133.3010
" />
<path d="M125.2196 133.3962
L125.2196 134.7296
" />
<path d="M124.7434 132.6343
L124.2672 134.0629
" />
<path d="M124.2672 134.0629
L125.5053 134.0629
" />
<path d="M127.7910 134.7296
L127.7910 132.7296
" />
<path d="M128.6482 134.7296
L128.6482 133.6819
" />
<path d="M128.6482 133.6819
L128.5529 133.4915
" />
<path d="M128.5529 133.4915
L128.3625 133.3962
" />
<path d="M128.3625 133.3962
L128.0767 133.3962
" />
<path d="M128.0767 133.3962
L127.8863 133.4915
" />
<path d="M127.8863 133.4915
L127.7910 133.5867
" />
<path d="M129.8863 134.7296
L129.6958 134.6343
" />
<path d="M129.6958 134.6343
L129.6006 134.5391
" />
<path d="M129.6006 134.5391
L129.5053 134.3486
" />
<path d="M129.5053 134.3486
L129.5053 133.7772
" />
<path d="M129.5053 133.7772
L129.6006 133.5867
" />
<path d="M129.6006 133.5867
L129.6958 133.4915
" />
<path d="M129.6958 133.4915
L129.8863 133.3962
" />
<path d="M129.8863 133.3962
L130.1720 133.3962
" />
<path d="M130.1720 133.3962
L130.3625 133.4915
" />
<path d="M130.3625 133.4915
L130.4577 133.5867
" />
<path d="M130.4577 133.5867
L130.5529 133.7772
" />
<path d="M130.5529 133.7772
L130.5529 134.3486
" />
<path d="M130.5529 134.3486
L130.4577 134.5391
" />
<path d="M130.4577 134.5391
L130.3625 134.6343
" />
<path d="M130.3625 134.6343
L130.1720 134.7296
" />
<path d="M130.1720 134.7296
L129.8863 134.7296
" />
<path d="M131.6958 134.7296
L131.5053 134.6343
" />
<path d="M131.5053 134.6343
L131.4101 134.4438
" />
<path d="M131.4101 134.4438
L131.4101 132.7296
" />
<path d="M133.2196 134.6343
L133.0291 134.7296
" />
<path d="M133.0291 134.7296
L132.6482 134.7296
" />
<path d="M132.6482 134.7296
L132.4577 134.6343
" />
<path d="M132.4577 134.6343
L132.3625 134.4438
" />
<path d="M132.3625 134.4438
L132.3625 133.6819
" />
<path d="M132.3625 133.6819
L132.4577 133.4915
" />
<path d="M132.4577 133.4915
L132.6482 133.3962
" />
<path d="M132.6482 133.3962
L133.0291 133.3962
" />
<path d="M133.0291 133.3962
L133.2196 133.4915
" />
<path d="M133.2196 133.4915
L133.3148 133.6819
" />
<path d="M133.3148 133.6819
L133.3148 133.8724
" />
<path d="M133.3148 133.8724
L132.3625 134.0629
" />
<path d="M134.0767 134.6343
L134.2672 134.7296
" />
<path d="M134.2672 134.7296
L134.6482 134.7296
" />
<path d="M134.6482 134.7296
L134.8386 134.6343
" />
<path d="M134.8386 134.6343
L134.9339 134.4438
" />
<path d="M134.9339 134.4438
L134.9339 134.3486
" />
<path d="M134.9339 134.3486
L134.8386 134.1581
" />
<path d="M134.8386 134.1581
L134.6482 134.0629
" />
<path d="M134.6482 134.0629
L134.3625 134.0629
" />
<path d="M134.3625 134.0629
L134.1720 133.9676
" />
<path d="M134.1720 133.9676
L134.0767 133.7772
" />
<path d="M134.0767 133.7772
L134.0767 133.6819
" />
<path d="M134.0767 133.6819
L134.1720 133.4915
" />
<path d="M134.1720 133.4915
L134.3625 133.3962
" />
<path d="M134.3625 133.3962
L134.6482 133.3962
" />
<path d="M134.6482 133.3962
L134.8386 133.4915
" />
<path d="M135.6006 135.4915
L135.6958 135.3962
" />
<path d="M135.6958 135.3962
L135.8863 135.1105
" />
<path d="M135.8863 135.1105
L135.9815 134.9200
" />
<path d="M135.9815 134.9200
L136.0767 134.6343
" />
<path d="M136.0767 134.6343
L136.1720 134.1581
" />
<path d="M136.1720 134.1581
L136.1720 133.7772
" />
<path d="M136.1720 133.7772
L136.0767 133.3010
" />
<path d="M136.0767 133.3010
L135.9815 133.0153
" />
<path d="M135.9815 133.0153
L135.8863 132.8248
" />
<path d="M135.8863 132.8248
L135.6958 132.5391
" />
<path d="M135.6958 132.5391
L135.6006 132.4438
" />
</g><path style="fill:#000000; fill-opacity:0.0; 
stroke:#000000; stroke-width:0.2000; stroke-opacity:1; 
stroke-linecap:round; stroke-linejoin:round;fill:none"
d="M 85.7839,137.7114
85.7839,136.2972
84.3696,136.2972
84.3696,137.7114
Z" /> 
</g>
<g style="fill:#000000; fill-opacity:0.0; 
stroke:#000000; stroke-width:0.5803; stroke-opacity:1; 
stroke-linecap:round; stroke-linejoin:round;">
</g>
<g style="fill:#000000; fill-opacity:0.0; 
stroke:#000000; stroke-width:0.2000; stroke-opacity:1; 
stroke-linecap:round; stroke-linejoin:round;">
<text x="88.0767" y="138.0043"
textLength="46.7667" font-size="2.6667" lengthAdjust="spacingAndGlyphs"
text-anchor="start" opacity="0">1.500mm / 0.0591" (2 holes)</text>
<g class="stroked-text"><desc>1.500mm / 0.0591" (2 holes)</desc>
<path d="M89.6005 137.9296
L88.4577 137.9296
" />
<path d="M89.0291 137.9296
L89.0291 135.9296
" />
<path d="M89.0291 135.9296
L88.8386 136.2153
" />
<path d="M88.8386 136.2153
L88.6482 136.4057
" />
<path d="M88.6482 136.4057
L88.4577 136.5010
" />
<path d="M90.4577 137.7391
L90.5529 137.8343
" />
<path d="M90.5529 137.8343
L90.4577 137.9296
" />
<path d="M90.4577 137.9296
L90.3625 137.8343
" />
<path d="M90.3625 137.8343
L90.4577 137.7391
" />
<path d="M90.4577 137.7391
L90.4577 137.9296
" />
<path d="M92.3625 135.9296
L91.4101 135.9296
" />
<path d="M91.4101 135.9296
L91.3148 136.8819
" />
<path d="M91.3148 136.8819
L91.4101 136.7867
" />
<path d="M91.4101 136.7867
L91.6006 136.6915
" />
<path d="M91.6006 136.6915
L92.0767 136.6915
" />
<path d="M92.0767 136.6915
L92.2672 136.7867
" />
<path d="M92.2672 136.7867
L92.3625 136.8819
" />
<path d="M92.3625 136.8819
L92.4577 137.0724
" />
<path d="M92.4577 137.0724
L92.4577 137.5486
" />
<path d="M92.4577 137.5486
L92.3625 137.7391
" />
<path d="M92.3625 137.7391
L92.2672 137.8343
" />
<path d="M92.2672 137.8343
L92.0767 137.9296
" />
<path d="M92.0767 137.9296
L91.6006 137.9296
" />
<path d="M91.6006 137.9296
L91.4101 137.8343
" />
<path d="M91.4101 137.8343
L91.3148 137.7391
" />
<path d="M93.6958 135.9296
L93.8863 135.9296
" />
<path d="M93.8863 135.9296
L94.0767 136.0248
" />
<path d="M94.0767 136.0248
L94.1720 136.1200
" />
<path d="M94.1720 136.1200
L94.2672 136.3105
" />
<path d="M94.2672 136.3105
L94.3625 136.6915
" />
<path d="M94.3625 136.6915
L94.3625 137.1676
" />
<path d="M94.3625 137.1676
L94.2672 137.5486
" />
<path d="M94.2672 137.5486
L94.1720 137.7391
" />
<path d="M94.1720 137.7391
L94.0767 137.8343
" />
<path d="M94.0767 137.8343
L93.8863 137.9296
" />
<path d="M93.8863 137.9296
L93.6958 137.9296
" />
<path d="M93.6958 137.9296
L93.5053 137.8343
" />
<path d="M93.5053 137.8343
L93.4101 137.7391
" />
<path d="M93.4101 137.7391
L93.3148 137.5486
" />
<path d="M93.3148 137.5486
L93.2196 137.1676
" />
<path d="M93.2196 137.1676
L93.2196 136.6915
" />
<path d="M93.2196 136.6915
L93.3148 136.3105
" />
<path d="M93.3148 136.3105
L93.4101 136.1200
" />
<path d="M93.4101 136.1200
L93.5053 136.0248
" />
<path d="M93.5053 136.0248
L93.6958 135.9296
" />
<path d="M95.6006 135.9296
L95.7910 135.9296
" />
<path d="M95.7910 135.9296
L95.9815 136.0248
" />
<path d="M95.9815 136.0248
L96.0767 136.1200
" />
<path d="M96.0767 136.1200
L96.1720 136.3105
" />
<path d="M96.1720 136.3105
L96.2672 136.6915
" />
<path d="M96.2672 136.6915
L96.2672 137.1676
" />
<path d="M96.2672 137.1676
L96.1720 137.5486
" />
<path d="M96.1720 137.5486
L96.0767 137.7391
" />
<path d="M96.0767 137.7391
L95.9815 137.8343
" />
<path d="M95.9815 137.8343
L95.7910 137.9296
" />
<path d="M95.7910 137.9296
L95.6006 137.9296
" />
<path d="M95.6006 137.9296
L95.4101 137.8343
" />
<path d="M95.4101 137.8343
L95.3148 137.7391
" />
<path d="M95.3148 137.7391
L95.2196 137.5486
" />
<path d="M95.2196 137.5486
L95.1244 137.1676
" />
<path d="M95.1244 137.1676
L95.1244 136.6915
" />
<path d="M95.1244 136.6915
L95.2196 136.3105
" />
<path d="M95.2196 136.3105
L95.3148 136.1200
" />
<path d="M95.3148 136.1200
L95.4101 136.0248
" />
<path d="M95.4101 136.0248
L95.6006 135.9296
" />
<path d="M97.1244 137.9296
L97.1244 136.5962
" />
<path d="M97.1244 136.7867
L97.2196 136.6915
" />
<path d="M97.2196 136.6915
L97.4101 136.5962
" />
<path d="M97.4101 136.5962
L97.6958 136.5962
" />
<path d="M97.6958 136.5962
L97.8863 136.6915
" />
<path d="M97.8863 136.6915
L97.9815 136.8819
" />
<path d="M97.9815 136.8819
L97.9815 137.9296
" />
<path d="M97.9815 136.8819
L98.0767 136.6915
" />
<path d="M98.0767 136.6915
L98.2672 136.5962
" />
<path d="M98.2672 136.5962
L98.5529 136.5962
" />
<path d="M98.5529 136.5962
L98.7434 136.6915
" />
<path d="M98.7434 136.6915
L98.8386 136.8819
" />
<path d="M98.8386 136.8819
L98.8386 137.9296
" />
<path d="M99.7910 137.9296
L99.7910 136.5962
" />
<path d="M99.7910 136.7867
L99.8863 136.6915
" />
<path d="M99.8863 136.6915
L100.0767 136.5962
" />
<path d="M100.0767 136.5962
L100.3625 136.5962
" />
<path d="M100.3625 136.5962
L100.5529 136.6915
" />
<path d="M100.5529 136.6915
L100.6482 136.8819
" />
<path d="M100.6482 136.8819
L100.6482 137.9296
" />
<path d="M100.6482 136.8819
L100.7434 136.6915
" />
<path d="M100.7434 136.6915
L100.9339 136.5962
" />
<path d="M100.9339 136.5962
L101.2196 136.5962
" />
<path d="M101.2196 136.5962
L101.4101 136.6915
" />
<path d="M101.4101 136.6915
L101.5053 136.8819
" />
<path d="M101.5053 136.8819
L101.5053 137.9296
" />
<path d="M105.4101 135.8343
L103.6958 138.4057
" />
<path d="M107.9815 135.9296
L108.1720 135.9296
" />
<path d="M108.1720 135.9296
L108.3625 136.0248
" />
<path d="M108.3625 136.0248
L108.4577 136.1200
" />
<path d="M108.4577 136.1200
L108.5529 136.3105
" />
<path d="M108.5529 136.3105
L108.6482 136.6915
" />
<path d="M108.6482 136.6915
L108.6482 137.1676
" />
<path d="M108.6482 137.1676
L108.5529 137.5486
" />
<path d="M108.5529 137.5486
L108.4577 137.7391
" />
<path d="M108.4577 137.7391
L108.3625 137.8343
" />
<path d="M108.3625 137.8343
L108.1720 137.9296
" />
<path d="M108.1720 137.9296
L107.9815 137.9296
" />
<path d="M107.9815 137.9296
L107.7910 137.8343
" />
<path d="M107.7910 137.8343
L107.6958 137.7391
" />
<path d="M107.6958 137.7391
L107.6006 137.5486
" />
<path d="M107.6006 137.5486
L107.5053 137.1676
" />
<path d="M107.5053 137.1676
L107.5053 136.6915
" />
<path d="M107.5053 136.6915
L107.6006 136.3105
" />
<path d="M107.6006 136.3105
L107.6958 136.1200
" />
<path d="M107.6958 136.1200
L107.7910 136.0248
" />
<path d="M107.7910 136.0248
L107.9815 135.9296
" />
<path d="M109.5053 137.7391
L109.6005 137.8343
" />
<path d="M109.6005 137.8343
L109.5053 137.9296
" />
<path d="M109.5053 137.9296
L109.4101 137.8343
" />
<path d="M109.4101 137.8343
L109.5053 137.7391
" />
<path d="M109.5053 137.7391
L109.5053 137.9296
" />
<path d="M110.8386 135.9296
L111.0291 135.9296
" />
<path d="M111.0291 135.9296
L111.2196 136.0248
" />
<path d="M111.2196 136.0248
L111.3148 136.1200
" />
<path d="M111.3148 136.1200
L111.4101 136.3105
" />
<path d="M111.4101 136.3105
L111.5053 136.6915
" />
<path d="M111.5053 136.6915
L111.5053 137.1676
" />
<path d="M111.5053 137.1676
L111.4101 137.5486
" />
<path d="M111.4101 137.5486
L111.3148 137.7391
" />
<path d="M111.3148 137.7391
L111.2196 137.8343
" />
<path d="M111.2196 137.8343
L111.0291 137.9296
" />
<path d="M111.0291 137.9296
L110.8386 137.9296
" />
<path d="M110.8386 137.9296
L110.6482 137.8343
" />
<path d="M110.6482 137.8343
L110.5529 137.7391
" />
<path d="M110.5529 137.7391
L110.4577 137.5486
" />
<path d="M110.4577 137.5486
L110.3625 137.1676
" />
<path d="M110.3625 137.1676
L110.3625 136.6915
" />
<path d="M110.3625 136.6915
L110.4577 136.3105
" />
<path d="M110.4577 136.3105
L110.5529 136.1200
" />
<path d="M110.5529 136.1200
L110.6482 136.0248
" />
<path d="M110.6482 136.0248
L110.8386 135.9296
" />
<path d="M113.3148 135.9296
L112.3625 135.9296
" />
<path d="M112.3625 135.9296
L112.2672 136.8819
" />
<path d="M112.2672 136.8819
L112.3625 136.7867
" />
<path d="M112.3625 136.7867
L112.5529 136.6915
" />
<path d="M112.5529 136.6915
L113.0291 136.6915
" />
<path d="M113.0291 136.6915
L113.2196 136.7867
" />
<path d="M113.2196 136.7867
L113.3148 136.8819
" />
<path d="M113.3148 136.8819
L113.4101 137.0724
" />
<path d="M113.4101 137.0724
L113.4101 137.5486
" />
<path d="M113.4101 137.5486
L113.3148 137.7391
" />
<path d="M113.3148 137.7391
L113.2196 137.8343
" />
<path d="M113.2196 137.8343
L113.0291 137.9296
" />
<path d="M113.0291 137.9296
L112.5529 137.9296
" />
<path d="M112.5529 137.9296
L112.3625 137.8343
" />
<path d="M112.3625 137.8343
L112.2672 137.7391
" />
<path d="M114.3625 137.9296
L114.7434 137.9296
" />
<path d="M114.7434 137.9296
L114.9339 137.8343
" />
<path d="M114.9339 137.8343
L115.0291 137.7391
" />
<path d="M115.0291 137.7391
L115.2196 137.4534
" />
<path d="M115.2196 137.4534
L115.3148 137.0724
" />
<path d="M115.3148 137.0724
L115.3148 136.3105
" />
<path d="M115.3148 136.3105
L115.2196 136.1200
" />
<path d="M115.2196 136.1200
L115.1244 136.0248
" />
<path d="M115.1244 136.0248
L114.9339 135.9296
" />
<path d="M114.9339 135.9296
L114.5529 135.9296
" />
<path d="M114.5529 135.9296
L114.3625 136.0248
" />
<path d="M114.3625 136.0248
L114.2672 136.1200
" />
<path d="M114.2672 136.1200
L114.1720 136.3105
" />
<path d="M114.1720 136.3105
L114.1720 136.7867
" />
<path d="M114.1720 136.7867
L114.2672 136.9772
" />
<path d="M114.2672 136.9772
L114.3625 137.0724
" />
<path d="M114.3625 137.0724
L114.5529 137.1676
" />
<path d="M114.5529 137.1676
L114.9339 137.1676
" />
<path d="M114.9339 137.1676
L115.1244 137.0724
" />
<path d="M115.1244 137.0724
L115.2196 136.9772
" />
<path d="M115.2196 136.9772
L115.3148 136.7867
" />
<path d="M117.2196 137.9296
L116.0767 137.9296
" />
<path d="M116.6482 137.9296
L116.6482 135.9296
" />
<path d="M116.6482 135.9296
L116.4577 136.2153
" />
<path d="M116.4577 136.2153
L116.2672 136.4057
" />
<path d="M116.2672 136.4057
L116.0767 136.5010
" />
<path d="M117.9815 135.9296
L117.9815 136.3105
" />
<path d="M118.7434 135.9296
L118.7434 136.3105
" />
<path d="M121.6958 138.6915
L121.6006 138.5962
" />
<path d="M121.6006 138.5962
L121.4101 138.3105
" />
<path d="M121.4101 138.3105
L121.3148 138.1200
" />
<path d="M121.3148 138.1200
L121.2196 137.8343
" />
<path d="M121.2196 137.8343
L121.1244 137.3581
" />
<path d="M121.1244 137.3581
L121.1244 136.9772
" />
<path d="M121.1244 136.9772
L121.2196 136.5010
" />
<path d="M121.2196 136.5010
L121.3148 136.2153
" />
<path d="M121.3148 136.2153
L121.4101 136.0248
" />
<path d="M121.4101 136.0248
L121.6006 135.7391
" />
<path d="M121.6006 135.7391
L121.6958 135.6438
" />
<path d="M122.3625 136.1200
L122.4577 136.0248
" />
<path d="M122.4577 136.0248
L122.6482 135.9296
" />
<path d="M122.6482 135.9296
L123.1244 135.9296
" />
<path d="M123.1244 135.9296
L123.3148 136.0248
" />
<path d="M123.3148 136.0248
L123.4101 136.1200
" />
<path d="M123.4101 136.1200
L123.5053 136.3105
" />
<path d="M123.5053 136.3105
L123.5053 136.5010
" />
<path d="M123.5053 136.5010
L123.4101 136.7867
" />
<path d="M123.4101 136.7867
L122.2672 137.9296
" />
<path d="M122.2672 137.9296
L123.5053 137.9296
" />
<path d="M125.8863 137.9296
L125.8863 135.9296
" />
<path d="M126.7434 137.9296
L126.7434 136.8819
" />
<path d="M126.7434 136.8819
L126.6482 136.6915
" />
<path d="M126.6482 136.6915
L126.4577 136.5962
" />
<path d="M126.4577 136.5962
L126.1720 136.5962
" />
<path d="M126.1720 136.5962
L125.9815 136.6915
" />
<path d="M125.9815 136.6915
L125.8863 136.7867
" />
<path d="M127.9815 137.9296
L127.7910 137.8343
" />
<path d="M127.7910 137.8343
L127.6958 137.7391
" />
<path d="M127.6958 137.7391
L127.6006 137.5486
" />
<path d="M127.6006 137.5486
L127.6006 136.9772
" />
<path d="M127.6006 136.9772
L127.6958 136.7867
" />
<path d="M127.6958 136.7867
L127.7910 136.6915
" />
<path d="M127.7910 136.6915
L127.9815 136.5962
" />
<path d="M127.9815 136.5962
L128.2672 136.5962
" />
<path d="M128.2672 136.5962
L128.4577 136.6915
" />
<path d="M128.4577 136.6915
L128.5529 136.7867
" />
<path d="M128.5529 136.7867
L128.6482 136.9772
" />
<path d="M128.6482 136.9772
L128.6482 137.5486
" />
<path d="M128.6482 137.5486
L128.5529 137.7391
" />
<path d="M128.5529 137.7391
L128.4577 137.8343
" />
<path d="M128.4577 137.8343
L128.2672 137.9296
" />
<path d="M128.2672 137.9296
L127.9815 137.9296
" />
<path d="M129.7910 137.9296
L129.6005 137.8343
" />
<path d="M129.6005 137.8343
L129.5053 137.6438
" />
<path d="M129.5053 137.6438
L129.5053 135.9296
" />
<path d="M131.3148 137.8343
L131.1244 137.9296
" />
<path d="M131.1244 137.9296
L130.7434 137.9296
" />
<path d="M130.7434 137.9296
L130.5529 137.8343
" />
<path d="M130.5529 137.8343
L130.4577 137.6438
" />
<path d="M130.4577 137.6438
L130.4577 136.8819
" />
<path d="M130.4577 136.8819
L130.5529 136.6915
" />
<path d="M130.5529 136.6915
L130.7434 136.5962
" />
<path d="M130.7434 136.5962
L131.1244 136.5962
" />
<path d="M131.1244 136.5962
L131.3148 136.6915
" />
<path d="M131.3148 136.6915
L131.4101 136.8819
" />
<path d="M131.4101 136.8819
L131.4101 137.0724
" />
<path d="M131.4101 137.0724
L130.4577 137.2629
" />
<path d="M132.1720 137.8343
L132.3625 137.9296
" />
<path d="M132.3625 137.9296
L132.7434 137.9296
" />
<path d="M132.7434 137.9296
L132.9339 137.8343
" />
<path d="M132.9339 137.8343
L133.0291 137.6438
" />
<path d="M133.0291 137.6438
L133.0291 137.5486
" />
<path d="M133.0291 137.5486
L132.9339 137.3581
" />
<path d="M132.9339 137.3581
L132.7434 137.2629
" />
<path d="M132.7434 137.2629
L132.4577 137.2629
" />
<path d="M132.4577 137.2629
L132.2672 137.1676
" />
<path d="M132.2672 137.1676
L132.1720 136.9772
" />
<path d="M132.1720 136.9772
L132.1720 136.8819
" />
<path d="M132.1720 136.8819
L132.2672 136.6915
" />
<path d="M132.2672 136.6915
L132.4577 136.5962
" />
<path d="M132.4577 136.5962
L132.7434 136.5962
" />
<path d="M132.7434 136.5962
L132.9339 136.6915
" />
<path d="M133.6958 138.6915
L133.7910 138.5962
" />
<path d="M133.7910 138.5962
L133.9815 138.3105
" />
<path d="M133.9815 138.3105
L134.0767 138.1200
" />
<path d="M134.0767 138.1200
L134.1720 137.8343
" />
<path d="M134.1720 137.8343
L134.2672 137.3581
" />
<path d="M134.2672 137.3581
L134.2672 136.9772
" />
<path d="M134.2672 136.9772
L134.1720 136.5010
" />
<path d="M134.1720 136.5010
L134.0767 136.2153
" />
<path d="M134.0767 136.2153
L133.9815 136.0248
" />
<path d="M133.9815 136.0248
L133.7910 135.7391
" />
<path d="M133.7910 135.7391
L133.6958 135.6438
" />
</g></g> 
</svg>
