%TF.GenerationSoftware,KiCad,Pcbnew,7.0.1*%
%TF.CreationDate,2023-12-31T16:00:12+01:00*%
%TF.ProjectId,ami_rtc,616d695f-7274-4632-9e6b-696361645f70,rev?*%
%TF.SameCoordinates,PX5125ed0PY5544200*%
%TF.FileFunction,Copper,L2,Bot*%
%TF.FilePolarity,Positive*%
%FSLAX46Y46*%
G04 Gerber Fmt 4.6, Leading zero omitted, Abs format (unit mm)*
G04 Created by KiCad (PCBNEW 7.0.1) date 2023-12-31 16:00:12*
%MOMM*%
%LPD*%
G01*
G04 APERTURE LIST*
%TA.AperFunction,ComponentPad*%
%ADD10C,3.000000*%
%TD*%
%TA.AperFunction,ComponentPad*%
%ADD11R,3.000000X3.000000*%
%TD*%
%TA.AperFunction,ComponentPad*%
%ADD12R,2.400000X1.600000*%
%TD*%
%TA.AperFunction,ComponentPad*%
%ADD13O,2.400000X1.600000*%
%TD*%
%TA.AperFunction,ComponentPad*%
%ADD14O,1.700000X1.700000*%
%TD*%
%TA.AperFunction,ComponentPad*%
%ADD15R,1.700000X1.700000*%
%TD*%
%TA.AperFunction,ComponentPad*%
%ADD16R,1.600000X1.600000*%
%TD*%
%TA.AperFunction,ComponentPad*%
%ADD17O,1.600000X1.600000*%
%TD*%
%TA.AperFunction,ViaPad*%
%ADD18C,1.400000*%
%TD*%
%TA.AperFunction,Conductor*%
%ADD19C,0.400000*%
%TD*%
G04 APERTURE END LIST*
D10*
%TO.P,BT1,2,-*%
%TO.N,GND*%
X16764001Y8524000D03*
D11*
%TO.P,BT1,1,+*%
%TO.N,Net-(BT1-+)*%
X16764001Y29014000D03*
%TD*%
D12*
%TO.P,U1,1,STD.P*%
%TO.N,unconnected-(U1-STD.P-Pad1)*%
X32890500Y31740000D03*
D13*
%TO.P,U1,2,CS0*%
%TO.N,_XCLKCS*%
X32890500Y29200000D03*
%TO.P,U1,3,ALE*%
%TO.N,Net-(U1-ALE)*%
X32890500Y26660000D03*
%TO.P,U1,4,A0*%
%TO.N,XA2*%
X32890500Y24120000D03*
%TO.P,U1,5,A1*%
%TO.N,XA3*%
X32890500Y21580000D03*
%TO.P,U1,6,A2*%
%TO.N,XA4*%
X32890500Y19040000D03*
%TO.P,U1,7,A3*%
%TO.N,XA5*%
X32890500Y16500000D03*
%TO.P,U1,8,_RD*%
%TO.N,_XCLKRD*%
X32890500Y13960000D03*
%TO.P,U1,9,GND*%
%TO.N,GND*%
X32890500Y11420000D03*
%TO.P,U1,10,_WR*%
%TO.N,_XCLKWR*%
X40510500Y11420000D03*
%TO.P,U1,11,D3*%
%TO.N,XD3*%
X40510500Y13960000D03*
%TO.P,U1,12,D2*%
%TO.N,XD2*%
X40510500Y16500000D03*
%TO.P,U1,13,D1*%
%TO.N,XD1*%
X40510500Y19040000D03*
%TO.P,U1,14,D0*%
%TO.N,XD0*%
X40510500Y21580000D03*
%TO.P,U1,15,CS1*%
%TO.N,Net-(U1-ALE)*%
X40510500Y24120000D03*
%TO.P,U1,16,(Vdd)*%
%TO.N,unconnected-(U1-(Vdd)-Pad16)*%
X40510500Y26660000D03*
%TO.P,U1,17,(Vdd)*%
%TO.N,unconnected-(U1-(Vdd)-Pad17)*%
X40510500Y29200000D03*
%TO.P,U1,18,Vdd*%
%TO.N,+5V*%
X40510500Y31740000D03*
%TD*%
D14*
%TO.P,J1,14,Pin_14*%
%TO.N,GND*%
X2794000Y3810000D03*
%TO.P,J1,13,Pin_13*%
%TO.N,unconnected-(J1-Pin_13-Pad13)*%
X2794000Y6350000D03*
%TO.P,J1,12,Pin_12*%
%TO.N,_XCLKCS*%
X2794000Y8890000D03*
%TO.P,J1,11,Pin_11*%
%TO.N,_XCLKWR*%
X2794000Y11430000D03*
%TO.P,J1,10,Pin_10*%
%TO.N,_XCLKRD*%
X2794000Y13970000D03*
%TO.P,J1,9,Pin_9*%
%TO.N,XA5*%
X2794000Y16510000D03*
%TO.P,J1,8,Pin_8*%
%TO.N,XA4*%
X2794000Y19050000D03*
%TO.P,J1,7,Pin_7*%
%TO.N,XA3*%
X2794000Y21590000D03*
%TO.P,J1,6,Pin_6*%
%TO.N,XA2*%
X2794000Y24130000D03*
%TO.P,J1,5,Pin_5*%
%TO.N,XD3*%
X2794000Y26670000D03*
%TO.P,J1,4,Pin_4*%
%TO.N,XD2*%
X2794000Y29210000D03*
%TO.P,J1,3,Pin_3*%
%TO.N,XD1*%
X2794000Y31750000D03*
%TO.P,J1,2,Pin_2*%
%TO.N,XD0*%
X2794000Y34290000D03*
D15*
%TO.P,J1,1,Pin_1*%
%TO.N,+5V*%
X2794000Y36830000D03*
%TD*%
D16*
%TO.P,D1,1,K*%
%TO.N,+5V*%
X9144000Y36830000D03*
D17*
%TO.P,D1,2,A*%
%TO.N,Net-(BT1-+)*%
X9144000Y29210000D03*
%TD*%
D18*
%TO.N,GND*%
X29718000Y11420000D03*
%TD*%
D19*
%TO.N,Net-(BT1-+)*%
X16568001Y29210000D02*
X16764001Y29014000D01*
X9144000Y29210000D02*
X16568001Y29210000D01*
%TO.N,_XCLKWR*%
X39310500Y12620000D02*
X3984000Y12620000D01*
X3984000Y12620000D02*
X2794000Y11430000D01*
X40510500Y11420000D02*
X39310500Y12620000D01*
%TO.N,GND*%
X19660001Y11420000D02*
X16764001Y8524000D01*
X29718000Y11420000D02*
X19660001Y11420000D01*
X32890500Y11420000D02*
X29718000Y11420000D01*
%TO.N,+5V*%
X32512000Y36830000D02*
X10160000Y36830000D01*
X35420500Y36830000D02*
X32512000Y36830000D01*
%TO.N,GND*%
X7508000Y8524000D02*
X2794000Y3810000D01*
X16764001Y8524000D02*
X7508000Y8524000D01*
%TO.N,_XCLKRD*%
X24015500Y13970000D02*
X2794000Y13970000D01*
X24025500Y13960000D02*
X24015500Y13970000D01*
%TO.N,XA5*%
X24015500Y16510000D02*
X2794000Y16510000D01*
X24025500Y16500000D02*
X24015500Y16510000D01*
%TO.N,XA4*%
X24015500Y19050000D02*
X2794000Y19050000D01*
X24025500Y19040000D02*
X24015500Y19050000D01*
%TO.N,XA3*%
X24015500Y21590000D02*
X2794000Y21590000D01*
X24025500Y21580000D02*
X24015500Y21590000D01*
%TO.N,XA2*%
X24015500Y24130000D02*
X2794000Y24130000D01*
X24025500Y24120000D02*
X24015500Y24130000D01*
%TO.N,XD3*%
X33707556Y25400000D02*
X4064000Y25400000D01*
X4064000Y25400000D02*
X2794000Y26670000D01*
X34490500Y19980000D02*
X34490500Y24617056D01*
X34490500Y24617056D02*
X33707556Y25400000D01*
X40510500Y13960000D02*
X34490500Y19980000D01*
%TO.N,XD2*%
X25225500Y28000000D02*
X24339500Y27114000D01*
X35090500Y26557056D02*
X33647556Y28000000D01*
X33647556Y28000000D02*
X25225500Y28000000D01*
X40510500Y16500000D02*
X35090500Y21920000D01*
X35090500Y21920000D02*
X35090500Y26557056D01*
X24339500Y27114000D02*
X4890000Y27114000D01*
X4890000Y27114000D02*
X2794000Y29210000D01*
%TO.N,XD1*%
X24015500Y31750000D02*
X2794000Y31750000D01*
X25285500Y30480000D02*
X24015500Y31750000D01*
%TO.N,XD0*%
X32905500Y34290000D02*
X2794000Y34290000D01*
X38910500Y28285000D02*
X32905500Y34290000D01*
X40510500Y21580000D02*
X38910500Y23180000D01*
X38910500Y23180000D02*
X38910500Y28285000D01*
%TO.N,+5V*%
X40510500Y31740000D02*
X35420500Y36830000D01*
X2794000Y36830000D02*
X10160000Y36830000D01*
%TO.N,XD1*%
X35690500Y28497056D02*
X33707556Y30480000D01*
X35690500Y23860000D02*
X35690500Y28497056D01*
X33707556Y30480000D02*
X25285500Y30480000D01*
X40510500Y19040000D02*
X35690500Y23860000D01*
%TO.N,_XCLKRD*%
X2804000Y13960000D02*
X2794000Y13970000D01*
X32890500Y13960000D02*
X24025500Y13960000D01*
%TO.N,XA5*%
X2804000Y16500000D02*
X2794000Y16510000D01*
X32890500Y16500000D02*
X24025500Y16500000D01*
%TO.N,XA4*%
X2804000Y19040000D02*
X2794000Y19050000D01*
X32890500Y19040000D02*
X24025500Y19040000D01*
%TO.N,XA3*%
X2804000Y21580000D02*
X2794000Y21590000D01*
X32890500Y21580000D02*
X24025500Y21580000D01*
%TO.N,XA2*%
X32890500Y24120000D02*
X24025500Y24120000D01*
X2804000Y24120000D02*
X2794000Y24130000D01*
%TD*%
M02*
