%TF.GenerationSoftware,KiCad,Pcbnew,7.0.1*%
%TF.CreationDate,2023-12-31T16:00:12+01:00*%
%TF.ProjectId,ami_rtc,616d695f-7274-4632-9e6b-696361645f70,rev?*%
%TF.SameCoordinates,PX5125ed0PY5544200*%
%TF.FileFunction,Copper,L1,Top*%
%TF.FilePolarity,Positive*%
%FSLAX46Y46*%
G04 Gerber Fmt 4.6, Leading zero omitted, Abs format (unit mm)*
G04 Created by KiCad (PCBNEW 7.0.1) date 2023-12-31 16:00:12*
%MOMM*%
%LPD*%
G01*
G04 APERTURE LIST*
G04 Aperture macros list*
%AMRoundRect*
0 Rectangle with rounded corners*
0 $1 Rounding radius*
0 $2 $3 $4 $5 $6 $7 $8 $9 X,Y pos of 4 corners*
0 Add a 4 corners polygon primitive as box body*
4,1,4,$2,$3,$4,$5,$6,$7,$8,$9,$2,$3,0*
0 Add four circle primitives for the rounded corners*
1,1,$1+$1,$2,$3*
1,1,$1+$1,$4,$5*
1,1,$1+$1,$6,$7*
1,1,$1+$1,$8,$9*
0 Add four rect primitives between the rounded corners*
20,1,$1+$1,$2,$3,$4,$5,0*
20,1,$1+$1,$4,$5,$6,$7,0*
20,1,$1+$1,$6,$7,$8,$9,0*
20,1,$1+$1,$8,$9,$2,$3,0*%
G04 Aperture macros list end*
%TA.AperFunction,ComponentPad*%
%ADD10C,3.000000*%
%TD*%
%TA.AperFunction,ComponentPad*%
%ADD11R,3.000000X3.000000*%
%TD*%
%TA.AperFunction,ComponentPad*%
%ADD12R,2.400000X1.600000*%
%TD*%
%TA.AperFunction,ComponentPad*%
%ADD13O,2.400000X1.600000*%
%TD*%
%TA.AperFunction,SMDPad,CuDef*%
%ADD14RoundRect,0.250000X0.625000X-0.400000X0.625000X0.400000X-0.625000X0.400000X-0.625000X-0.400000X0*%
%TD*%
%TA.AperFunction,ComponentPad*%
%ADD15O,1.700000X1.700000*%
%TD*%
%TA.AperFunction,ComponentPad*%
%ADD16R,1.700000X1.700000*%
%TD*%
%TA.AperFunction,ComponentPad*%
%ADD17R,1.600000X1.600000*%
%TD*%
%TA.AperFunction,ComponentPad*%
%ADD18O,1.600000X1.600000*%
%TD*%
%TA.AperFunction,SMDPad,CuDef*%
%ADD19RoundRect,0.250000X-0.550000X1.050000X-0.550000X-1.050000X0.550000X-1.050000X0.550000X1.050000X0*%
%TD*%
%TA.AperFunction,SMDPad,CuDef*%
%ADD20RoundRect,0.250000X-0.650000X0.412500X-0.650000X-0.412500X0.650000X-0.412500X0.650000X0.412500X0*%
%TD*%
%TA.AperFunction,ViaPad*%
%ADD21C,1.400000*%
%TD*%
%TA.AperFunction,Conductor*%
%ADD22C,0.400000*%
%TD*%
G04 APERTURE END LIST*
D10*
%TO.P,BT1,2,-*%
%TO.N,GND*%
X16764001Y8524000D03*
D11*
%TO.P,BT1,1,+*%
%TO.N,Net-(BT1-+)*%
X16764001Y29014000D03*
%TD*%
D12*
%TO.P,U1,1,STD.P*%
%TO.N,unconnected-(U1-STD.P-Pad1)*%
X32890500Y31740000D03*
D13*
%TO.P,U1,2,CS0*%
%TO.N,_XCLKCS*%
X32890500Y29200000D03*
%TO.P,U1,3,ALE*%
%TO.N,Net-(U1-ALE)*%
X32890500Y26660000D03*
%TO.P,U1,4,A0*%
%TO.N,XA2*%
X32890500Y24120000D03*
%TO.P,U1,5,A1*%
%TO.N,XA3*%
X32890500Y21580000D03*
%TO.P,U1,6,A2*%
%TO.N,XA4*%
X32890500Y19040000D03*
%TO.P,U1,7,A3*%
%TO.N,XA5*%
X32890500Y16500000D03*
%TO.P,U1,8,_RD*%
%TO.N,_XCLKRD*%
X32890500Y13960000D03*
%TO.P,U1,9,GND*%
%TO.N,GND*%
X32890500Y11420000D03*
%TO.P,U1,10,_WR*%
%TO.N,_XCLKWR*%
X40510500Y11420000D03*
%TO.P,U1,11,D3*%
%TO.N,XD3*%
X40510500Y13960000D03*
%TO.P,U1,12,D2*%
%TO.N,XD2*%
X40510500Y16500000D03*
%TO.P,U1,13,D1*%
%TO.N,XD1*%
X40510500Y19040000D03*
%TO.P,U1,14,D0*%
%TO.N,XD0*%
X40510500Y21580000D03*
%TO.P,U1,15,CS1*%
%TO.N,Net-(U1-ALE)*%
X40510500Y24120000D03*
%TO.P,U1,16,(Vdd)*%
%TO.N,unconnected-(U1-(Vdd)-Pad16)*%
X40510500Y26660000D03*
%TO.P,U1,17,(Vdd)*%
%TO.N,unconnected-(U1-(Vdd)-Pad17)*%
X40510500Y29200000D03*
%TO.P,U1,18,Vdd*%
%TO.N,+5V*%
X40510500Y31740000D03*
%TD*%
D14*
%TO.P,R2,2*%
%TO.N,Net-(U1-ALE)*%
X33770000Y6858000D03*
%TO.P,R2,1*%
%TO.N,+5V*%
X33770000Y3758000D03*
%TD*%
%TO.P,R1,2*%
%TO.N,_XCLKCS*%
X30480000Y6858000D03*
%TO.P,R1,1*%
%TO.N,+5V*%
X30480000Y3758000D03*
%TD*%
D15*
%TO.P,J1,14,Pin_14*%
%TO.N,GND*%
X2794000Y3810000D03*
%TO.P,J1,13,Pin_13*%
%TO.N,unconnected-(J1-Pin_13-Pad13)*%
X2794000Y6350000D03*
%TO.P,J1,12,Pin_12*%
%TO.N,_XCLKCS*%
X2794000Y8890000D03*
%TO.P,J1,11,Pin_11*%
%TO.N,_XCLKWR*%
X2794000Y11430000D03*
%TO.P,J1,10,Pin_10*%
%TO.N,_XCLKRD*%
X2794000Y13970000D03*
%TO.P,J1,9,Pin_9*%
%TO.N,XA5*%
X2794000Y16510000D03*
%TO.P,J1,8,Pin_8*%
%TO.N,XA4*%
X2794000Y19050000D03*
%TO.P,J1,7,Pin_7*%
%TO.N,XA3*%
X2794000Y21590000D03*
%TO.P,J1,6,Pin_6*%
%TO.N,XA2*%
X2794000Y24130000D03*
%TO.P,J1,5,Pin_5*%
%TO.N,XD3*%
X2794000Y26670000D03*
%TO.P,J1,4,Pin_4*%
%TO.N,XD2*%
X2794000Y29210000D03*
%TO.P,J1,3,Pin_3*%
%TO.N,XD1*%
X2794000Y31750000D03*
%TO.P,J1,2,Pin_2*%
%TO.N,XD0*%
X2794000Y34290000D03*
D16*
%TO.P,J1,1,Pin_1*%
%TO.N,+5V*%
X2794000Y36830000D03*
%TD*%
D17*
%TO.P,D1,1,K*%
%TO.N,+5V*%
X9144000Y36830000D03*
D18*
%TO.P,D1,2,A*%
%TO.N,Net-(BT1-+)*%
X9144000Y29210000D03*
%TD*%
D19*
%TO.P,C2,1*%
%TO.N,+5V*%
X23876000Y36852000D03*
%TO.P,C2,2*%
%TO.N,GND*%
X23876000Y33252000D03*
%TD*%
D20*
%TO.P,C1,1*%
%TO.N,+5V*%
X27664000Y36868500D03*
%TO.P,C1,2*%
%TO.N,GND*%
X27664000Y33743500D03*
%TD*%
D21*
%TO.N,GND*%
X29718000Y11420000D03*
%TD*%
D22*
%TO.N,GND*%
X27664000Y13474000D02*
X29718000Y11420000D01*
X27664000Y33743500D02*
X27664000Y13474000D01*
X23876000Y33252000D02*
X27172500Y33252000D01*
X27172500Y33252000D02*
X27664000Y33743500D01*
%TO.N,+5V*%
X23892500Y36868500D02*
X23876000Y36852000D01*
X26454500Y36868500D02*
X23892500Y36868500D01*
X35521500Y36868500D02*
X40510500Y31879500D01*
X40510500Y31879500D02*
X40510500Y31740000D01*
X32473500Y36868500D02*
X35521500Y36868500D01*
X38342000Y3758000D02*
X42110500Y7526500D01*
X33770000Y3758000D02*
X38342000Y3758000D01*
%TO.N,Net-(U1-ALE)*%
X36830000Y20439500D02*
X40510500Y24120000D01*
X36830000Y8636000D02*
X36830000Y20439500D01*
X35052000Y6858000D02*
X36830000Y8636000D01*
X33770000Y6858000D02*
X35052000Y6858000D01*
%TO.N,_XCLKCS*%
X30246000Y6624000D02*
X5060000Y6624000D01*
X30480000Y6858000D02*
X30246000Y6624000D01*
X31290500Y7668500D02*
X30480000Y6858000D01*
X31290500Y27600000D02*
X31290500Y7668500D01*
X32890500Y29200000D02*
X31290500Y27600000D01*
%TO.N,+5V*%
X42110500Y7526500D02*
X42110500Y30140000D01*
X42110500Y30140000D02*
X40510500Y31740000D01*
%TO.N,_XCLKCS*%
X30480000Y6858000D02*
X30275444Y6858000D01*
%TO.N,Net-(U1-ALE)*%
X37970500Y26660000D02*
X40510500Y24120000D01*
X32890500Y26660000D02*
X37970500Y26660000D01*
%TO.N,_XCLKCS*%
X5060000Y6624000D02*
X2794000Y8890000D01*
X30480000Y6858000D02*
X29992000Y6370000D01*
%TO.N,+5V*%
X33770000Y3758000D02*
X30480000Y3758000D01*
X32473500Y36868500D02*
X32512000Y36830000D01*
X30226000Y36868500D02*
X32473500Y36868500D01*
X26454500Y36868500D02*
X26438000Y36852000D01*
X30226000Y36868500D02*
X26454500Y36868500D01*
%TD*%
M02*
